<svg xmlns="http://www.w3.org/2000/svg" width="40" height="40" viewBox="0 0 40 40" fill="none"><path d="M19.4303 23.2725V24.0315C18.1832 24.158 17.1855 25.2333 17.1855 26.4984C17.1855 27.89 18.3079 28.9653 19.6174 28.9653C20.3032 28.9653 20.802 29.5346 20.802 30.1672C20.802 30.7997 20.2409 31.3689 19.6174 31.3689H17.809C17.4349 31.3689 17.1855 31.6219 17.1855 32.0015C17.1855 32.381 17.4349 32.634 17.809 32.634H19.4303V33.3298C19.4303 33.7094 19.6797 33.9624 20.0538 33.9624C20.4279 33.9624 20.6774 33.7094 20.6774 33.3298V32.381C21.5503 32.0015 22.1115 31.1159 22.1115 30.1039C22.1115 28.7123 20.9891 27.637 19.6797 27.637C18.9938 27.637 18.495 27.0677 18.495 26.4351C18.495 25.8026 18.9938 25.2966 19.6797 25.2966H21.488C21.8621 25.2966 22.1115 25.0436 22.1115 24.664C22.1115 24.2845 21.8621 24.0315 21.488 24.0315H20.6774V23.3357C20.6774 22.9561 20.4279 22.7031 20.0538 22.7031C19.6797 22.7031 19.4303 22.9561 19.4303 23.2725Z" fill="#02A95C" stroke="#02A95C" stroke-width="0.5"></path><path d="M38.4768 14.1278C38.346 13.9977 37.6266 13.2822 36.2532 9.8995C33.9642 4.30503 29.2554 1.83306 24.0235 3.5244C22.7808 3.91471 21.7344 4.56523 20.9496 5.47596C19.8378 6.71194 19.2492 8.14308 18.9876 9.44415C18.3337 8.20813 17.4834 7.0372 16.3062 6.12648C15.6522 5.60606 14.9328 5.21575 14.0826 4.89049C11.1396 3.84966 8.65444 3.97977 6.62705 5.2808C3.16085 7.55762 2.63765 12.3714 2.57225 13.8026C2.31065 18.1611 1.19885 19.5271 1.19885 19.5271C1.00265 19.7223 0.937249 19.9825 1.06805 20.2427C1.19885 20.5029 1.46045 20.633 1.72205 20.633C1.98365 20.633 8.3274 20.0476 10.0278 15.0386C10.224 14.5182 10.3548 13.9327 10.551 13.4123C11.7282 9.70435 12.5784 7.36246 15.7176 7.29741C19.7724 10.55 19.5762 17.8358 19.38 19.9175C14.8021 20.2427 11.1396 24.0157 11.1396 28.6995C11.1396 33.5783 15.129 37.4815 19.9686 37.4815C24.8083 37.4815 28.7976 33.5133 28.7976 28.6995C28.7976 24.0808 25.2007 20.3078 20.688 19.9175C20.8188 18.5514 20.8843 15.4289 20.0995 12.3064C20.034 11.7209 19.9686 8.66349 21.7998 6.51679C25.3314 6.25658 26.5086 8.9237 27.6858 11.4607C28.0782 12.2413 28.4052 12.9569 28.7976 13.6074C29.844 15.2988 32.1984 15.7541 34.2912 15.7541C36.384 15.7541 38.2806 15.2988 38.4768 15.2988C38.8038 15.2337 39 14.9085 39 14.5832C38.8692 14.388 38.7384 14.1929 38.4768 14.1278ZM9.24304 13.022C9.04684 13.5424 8.91607 14.0628 8.7198 14.6483C7.7388 17.5756 4.59965 18.6815 2.83385 19.1368C3.22625 18.1611 3.68405 16.5348 3.81485 13.9327C3.88025 12.6316 4.33805 8.33824 7.28105 6.45174C8.13127 5.86627 9.17762 5.60606 10.3548 5.60606C11.3358 5.60606 12.4476 5.80122 13.6248 6.25658C13.7556 6.32163 13.821 6.32163 13.9518 6.38668C11.0742 7.16731 10.1586 10.1597 9.24304 13.022ZM27.4896 28.6995C27.4896 32.8628 24.0888 36.1804 19.9686 36.1804C15.8484 36.1804 12.4476 32.7977 12.4476 28.6995C12.4476 24.6012 15.8484 21.2185 19.9686 21.2185C24.1542 21.2185 27.4896 24.5361 27.4896 28.6995ZM29.9095 13.022C29.5824 12.4365 29.2554 11.7209 28.863 11.0054C27.8166 8.66349 26.5086 5.80122 23.304 5.34586C23.6964 5.1507 24.0888 4.95554 24.4812 4.82544C29.0592 3.32925 32.9832 5.41091 35.076 10.4199C35.9262 12.4365 36.5148 13.6074 37.038 14.323C34.749 14.6483 31.0212 14.8434 29.9095 13.022Z" fill="#02A95C" stroke="#02A95C" stroke-width="0.5"></path></svg>