<svg xmlns="http://www.w3.org/2000/svg" width="633" height="702" viewBox="0 0 633 702" fill="none"><g filter="url(#filter0_bddi_232_106294)"><path d="M405.934 417.005C418.477 560.691 288.624 680.586 167.078 588.803C45.5315 497.021 21.4028 324.084 113.185 202.538C204.967 80.991 339.682 6.98254 461.229 98.7648C715.796 264.959 396.282 306.443 405.934 417.005Z" fill="url(#paint0_linear_232_106294)" fill-opacity="0.7"></path><path d="M166.777 589.202C197.242 612.207 228.255 621.967 257.45 621.386C286.643 620.806 313.981 609.887 337.1 591.597C383.331 555.023 412.717 488.959 406.432 416.962C404.041 389.582 422.022 366.407 446.634 344.381C457.719 334.46 470.117 324.799 482.551 315.111C483.906 314.055 485.263 312.998 486.618 311.94C500.392 301.191 514.037 290.369 525.771 279.108C549.224 256.599 565.167 232.209 559.117 202.954C553.079 173.757 525.162 139.909 461.516 98.3554C400.601 52.3637 336.36 47.9084 275.872 70.1837C215.408 92.4506 158.712 141.417 112.786 202.236C20.8373 324.003 45.0098 497.254 166.777 589.202Z" stroke="#FFFEFE"></path></g><defs><filter id="filter0_bddi_232_106294" x="-43.5283" y="-43.3184" width="704.435" height="765.229" filterUnits="userSpaceOnUse" color-interpolation-filters="sRGB"><feGaussianBlur stdDeviation="50"></feGaussianBlur><feGaussianBlur stdDeviation="30"></feGaussianBlur><feGaussianBlur stdDeviation="32"></feGaussianBlur><feGaussianBlur stdDeviation="9.5"></feGaussianBlur></filter><linearGradient id="paint0_linear_232_106294" x1="478.42" y1="77.5387" x2="68.0869" y2="510.597" gradientUnits="userSpaceOnUse"><stop stop-color="#FAFCFF"></stop><stop offset="1" stop-color="#EEF6FF"></stop></linearGradient></defs></svg>