<svg xmlns="http://www.w3.org/2000/svg" width="139" height="26" viewBox="0 0 139 26" fill="none"><path d="M22.6682 26C21.7266 26 20.841 25.6332 20.1757 24.9676C19.5092 24.3027 19.1428 23.4178 19.1428 22.4757C19.1428 21.5352 19.5092 20.6503 20.1739 19.9859C20.8399 19.3199 21.7255 18.9531 22.6669 18.9531C23.6081 18.9531 24.493 19.3188 25.1579 19.9843C26.532 21.3589 26.532 23.5953 25.1579 24.9694C24.493 25.6343 23.6087 26 22.6682 26Z" fill="url(#paint0_linear_308_14538)"></path><path d="M3.52538 7.21053C2.58375 7.21053 1.69837 6.84369 1.03238 6.17769C0.366834 5.51282 0 4.62789 0 3.68627C0 2.74509 0.365936 1.86083 1.03081 1.19663C1.69725 0.529963 2.58308 0.163129 3.52493 0.163129C4.46543 0.163129 5.35037 0.529289 6.01479 1.19439C6.68123 1.86038 7.04807 2.74576 7.04807 3.68694C7.04807 4.62856 6.68146 5.51349 6.01546 6.17949C5.35036 6.84414 4.46588 7.21053 3.52538 7.21053Z" fill="url(#paint1_linear_308_14538)"></path><path d="M22.5109 7.10724C21.5686 7.10724 20.6839 6.74041 20.0183 6.07486C18.6449 4.70075 18.6438 2.46545 20.0163 1.09245C20.6823 0.426459 21.5677 0.0591777 22.51 0.0591777C23.4509 0.0591777 24.3359 0.42601 25.0014 1.09133C26.3749 2.46478 26.3749 4.7012 25.0014 6.07688C24.3363 6.74086 23.4514 7.10724 22.5109 7.10724Z" fill="url(#paint2_linear_308_14538)"></path><path d="M3.61709 26C2.67546 26 1.79009 25.6332 1.12342 24.9676C0.457873 24.3023 0.0917114 23.4178 0.0923837 22.4762C0.0923837 21.535 0.459889 20.6503 1.12566 19.9848C1.26504 19.8445 1.42213 19.7161 1.62202 19.5812C1.68207 19.5393 1.73765 19.5059 1.79501 19.4709C1.92544 19.3961 2.05541 19.3277 2.17664 19.2722C2.24275 19.2426 2.31042 19.2121 2.38191 19.185C2.50852 19.1379 2.64992 19.096 2.81148 19.0577C2.84375 19.049 2.87221 19.0413 2.90112 19.0331C2.91927 19.0281 2.93675 19.0221 2.95513 19.0178L3.73967 18.9645C3.83916 18.9687 3.9456 18.9813 4.05922 18.9961L4.10403 19.0021C4.1307 19.0053 4.16678 19.0082 4.20286 19.0102L4.23446 19.0124L4.27031 19.0196H4.30146C4.35882 19.0218 4.41619 19.0227 4.47289 19.0227C5.82504 19.0227 7.15972 18.4468 8.13518 17.4436C9.10639 16.4446 9.64129 15.1007 9.60297 13.7555L9.60185 13.7156L9.59446 13.6739C9.58706 13.6363 9.58504 13.5982 9.58236 13.5603C9.57899 13.5151 9.57518 13.4703 9.56958 13.425L9.56084 13.3459C9.55322 13.2782 9.5456 13.2121 9.54112 13.1444L9.60118 12.3574C9.60499 12.3377 9.61216 12.3198 9.61754 12.3005L9.63166 12.2519C9.66796 12.1029 9.7065 11.9532 9.76275 11.8084C9.79165 11.7262 9.81944 11.6654 9.84947 11.6031C9.91222 11.4655 9.9772 11.3405 10.0536 11.2123C10.0868 11.1568 10.119 11.1003 10.1574 11.0458C10.2997 10.8383 10.4292 10.6797 10.5634 10.5452C11.229 9.87967 12.1137 9.5135 13.0564 9.5135C13.9974 9.5135 14.8834 9.87922 15.5494 10.5441C16.9217 11.9182 16.9208 14.1542 15.5463 15.5285C15.4073 15.6679 15.2498 15.7956 15.0495 15.9325C14.991 15.9724 14.9354 16.0056 14.8796 16.0385C14.753 16.1143 14.6253 16.1815 14.4982 16.24C14.4294 16.2709 14.3606 16.3027 14.2941 16.3272C14.1592 16.3774 14.0162 16.4199 13.8661 16.4538L13.7816 16.4773C13.7623 16.4827 13.7437 16.4887 13.7247 16.4937L12.9325 16.5499C12.8397 16.5461 12.7425 16.5336 12.6394 16.5203L12.569 16.5116C12.5455 16.5078 12.5085 16.5051 12.4713 16.5029L12.4435 16.5002L12.4032 16.4923H12.3716C12.3138 16.4903 12.2569 16.4896 12.1997 16.4896C10.8476 16.4896 9.51334 17.0649 8.53855 18.0683C7.56689 19.0678 7.03177 20.413 7.07009 21.758L7.07121 21.7979L7.0786 21.8378C7.086 21.8761 7.08756 21.9137 7.0907 21.9518C7.09384 21.9973 7.09787 22.0419 7.10325 22.0867C7.10482 22.1134 7.1102 22.162 7.11625 22.2095C7.12207 22.2635 7.12924 22.316 7.12924 22.37V22.3892L7.07233 23.1435C7.06874 23.1594 7.04342 23.2464 7.03625 23.2735C6.99815 23.4362 6.95513 23.5803 6.90695 23.7098C6.88073 23.782 6.85406 23.844 6.82291 23.909C6.76174 24.0428 6.69518 24.1712 6.61989 24.3016C6.58673 24.355 6.54751 24.4177 6.50762 24.478C6.37653 24.668 6.24656 24.8278 6.1074 24.9676C5.44342 25.6325 4.55871 25.9993 3.61754 25.9993L3.61709 26Z" fill="url(#paint3_linear_308_14538)"></path><path d="M13.1331 26C12.1909 26 11.3055 25.6332 10.6395 24.9672C9.97416 24.3019 9.60777 23.4174 9.60732 22.4758C9.60688 21.5352 9.97304 20.6508 10.6379 19.987C10.7737 19.8505 10.9279 19.725 11.1385 19.5794C11.1907 19.544 11.247 19.5095 11.3059 19.4756C11.4352 19.3981 11.5598 19.3327 11.6891 19.2731C11.7579 19.2419 11.8251 19.211 11.8935 19.1852C12.0244 19.137 12.1669 19.0951 12.3181 19.0617C12.3181 19.0617 12.4421 19.0257 12.458 19.0219L13.2548 18.9636C13.3489 18.9679 13.4502 18.9815 13.5565 18.9952L13.6154 19.003C13.6546 19.0068 13.6873 19.01 13.7203 19.0107C13.7333 19.0118 13.7465 19.0118 13.759 19.0129L13.7841 19.0163L13.8173 19.0196C13.8756 19.0212 13.9347 19.0228 13.993 19.0228C15.3424 19.0223 16.6751 18.4473 17.6483 17.4452C18.6195 16.4468 19.1544 15.1012 19.1161 13.7562L19.1112 13.5919L19.0966 13.5738C19.0959 13.5684 19.0959 13.5619 19.0955 13.5559C19.0935 13.5175 19.0912 13.479 19.0874 13.4402L19.0744 13.3273C19.0673 13.2652 19.0592 13.204 19.057 13.1417L19.1116 12.3792C19.1159 12.3606 19.1435 12.2662 19.1497 12.2378C19.1945 12.0556 19.2338 11.9223 19.2786 11.8037C19.3037 11.7329 19.3344 11.6679 19.3653 11.5996C19.4216 11.4768 19.4877 11.3517 19.5683 11.2141L19.5836 11.189C19.6107 11.1426 19.6369 11.0969 19.6692 11.0521C19.8135 10.8419 19.9417 10.6837 20.077 10.5484C20.7432 9.88236 21.6291 9.51553 22.5707 9.51553C23.5116 9.51553 24.3961 9.88169 25.0617 10.5468C26.4349 11.9202 26.4349 14.1573 25.0617 15.5323C24.9283 15.665 24.7695 15.7934 24.5626 15.9361C24.5227 15.9635 24.4846 15.9863 24.4465 16.0092L24.3849 16.0475C24.267 16.1174 24.1386 16.1847 24.0136 16.242C23.943 16.2736 23.8767 16.3041 23.8065 16.3303C23.6833 16.3769 23.5473 16.4161 23.3758 16.4572C23.3416 16.4652 23.3138 16.474 23.2862 16.4823C23.2669 16.4872 23.249 16.493 23.2304 16.4975L22.4472 16.5515C22.3325 16.5466 22.2086 16.5298 22.0884 16.5138C22.0474 16.5089 22.0158 16.5073 21.9847 16.5056C21.9728 16.5051 21.9609 16.5051 21.9488 16.5033L21.8821 16.4964C21.8238 16.4941 21.766 16.493 21.7082 16.493C20.3576 16.493 19.0251 17.0685 18.0506 18.0706C17.08 19.07 16.5456 20.4148 16.585 21.7609L16.5861 21.8003L16.5938 21.8391C16.6014 21.879 16.603 21.9198 16.6059 21.9597C16.6086 22.0011 16.6117 22.0417 16.6162 22.0814C16.6189 22.1147 16.6238 22.1573 16.6283 22.1986C16.6354 22.2582 16.6426 22.3182 16.6442 22.3776L16.5864 23.1509C16.5821 23.168 16.5519 23.2722 16.5519 23.2722C16.5142 23.436 16.4723 23.5794 16.4226 23.7143C16.399 23.7777 16.3712 23.8389 16.3428 23.9028L16.3329 23.9252C16.2747 24.0511 16.209 24.1757 16.1357 24.2974C16.0999 24.3574 16.0642 24.4164 16.0266 24.4722C15.8886 24.6725 15.7584 24.8318 15.6194 24.9721C14.9568 25.6343 14.0737 26 13.1331 26Z" fill="url(#paint4_linear_308_14538)"></path><path d="M3.61841 16.4856C2.67679 16.4856 1.79163 16.1194 1.12631 15.4543C0.46054 14.7879 0.0937038 13.903 0.0930315 12.9613C0.0925833 12.0206 0.458073 11.1368 1.12362 10.4719C1.26009 10.3355 1.41897 10.2066 1.62334 10.0657C1.67668 10.0298 1.73673 9.99306 1.79678 9.95698C1.91869 9.88505 2.04306 9.81894 2.17572 9.75776C2.24384 9.72661 2.31152 9.69613 2.38345 9.66924C2.51298 9.62173 2.65595 9.57961 2.80497 9.54645L2.8946 9.52135C2.91118 9.51642 2.92709 9.51104 2.94345 9.50723L3.74099 9.44986C3.84452 9.45412 3.95656 9.46891 4.07398 9.48482L4.09863 9.48818C4.13964 9.49244 4.17124 9.49423 4.20351 9.4958C4.21494 9.49625 4.22637 9.49625 4.23779 9.49804L4.27208 9.50409L4.30435 9.50521C4.36351 9.50678 4.42177 9.5079 4.48003 9.5079C5.82905 9.5079 7.16149 8.93311 8.13539 7.93031C9.10614 6.93087 9.6406 5.58566 9.6016 4.24022L9.60048 4.20146L9.59286 4.16314C9.58457 4.12056 9.58368 4.07731 9.58076 4.03361C9.57875 3.99821 9.57651 3.96258 9.5727 3.9256L9.5606 3.81692C9.55253 3.75238 9.54424 3.68695 9.54267 3.62152L9.59555 2.88135L9.60048 2.86432V2.84953C9.60474 2.83249 9.63365 2.73434 9.63365 2.73434C9.67846 2.54499 9.71835 2.40807 9.76317 2.28728C9.78827 2.22073 9.81942 2.15417 9.85101 2.08538C9.90838 1.95877 9.97561 1.83059 10.0531 1.69994L10.0652 1.67978C10.0957 1.62891 10.126 1.57827 10.1603 1.5274C10.3001 1.32482 10.4283 1.16661 10.5625 1.03283C11.2287 0.366837 12.1139 0 13.0562 0C13.9978 0 14.8827 0.366387 15.5487 1.03171C16.9222 2.40583 16.921 4.64224 15.5471 6.01569C15.4111 6.15216 15.2491 6.2837 15.0508 6.41793C14.9968 6.45625 14.9502 6.48336 14.9022 6.51182L14.876 6.52706C14.7467 6.60415 14.6194 6.67115 14.4993 6.72627C14.4283 6.75899 14.3617 6.78902 14.294 6.81412C14.1618 6.86342 14.0215 6.90488 13.8631 6.9414C13.83 6.94947 13.7999 6.95821 13.7699 6.9665C13.7517 6.97143 13.7334 6.97726 13.7148 6.98174L12.9336 7.03641C12.8348 7.03148 12.729 7.01827 12.6178 7.00415L12.5699 6.9981C12.5338 6.99362 12.5004 6.99204 12.4684 6.9898C12.4554 6.98913 12.4422 6.98913 12.4292 6.98711L12.4029 6.98376L12.3687 6.98107C12.3104 6.97883 12.2524 6.9777 12.1939 6.9777C10.8444 6.9777 9.51174 7.5525 8.53807 8.5544C7.56687 9.55384 7.03197 10.8995 7.07029 12.2456L7.07141 12.2848L7.07835 12.3236C7.08664 12.3628 7.08821 12.4038 7.09113 12.4437C7.09382 12.4852 7.09718 12.5255 7.10144 12.5669C7.1048 12.5997 7.1095 12.6416 7.11466 12.6833C7.12115 12.7422 7.12878 12.8 7.1299 12.8585L7.07365 13.6267C7.06939 13.6462 7.06289 13.6666 7.05684 13.6874L7.03712 13.7562C6.99791 13.9281 6.95645 14.0713 6.90939 14.1983C6.88429 14.2649 6.85202 14.3337 6.81975 14.4043C6.76194 14.5309 6.69651 14.6559 6.61987 14.7836C6.58357 14.8448 6.5495 14.9022 6.51298 14.9562C6.36844 15.1657 6.24384 15.3197 6.10782 15.4546C5.44205 16.1199 4.55824 16.4856 3.61841 16.4856Z" fill="url(#paint5_linear_308_14538)"></path><path d="M127.115 8.3457H128.371L131.575 16.3193L134.773 8.3457H136.036L132.059 18.1263H131.078L127.115 8.3457ZM126.705 8.3457H127.813L127.995 14.3108V18.1263H126.705V8.3457ZM135.33 8.3457H136.439V18.1263H135.149V14.3108L135.33 8.3457Z" fill="#333333"></path><path d="M118.09 8.3457H121.328C122.062 8.3457 122.682 8.45766 123.188 8.68158C123.699 8.90549 124.086 9.23689 124.351 9.67576C124.619 10.1102 124.754 10.6453 124.754 11.2812C124.754 11.7291 124.662 12.1388 124.478 12.5105C124.299 12.8778 124.039 13.1912 123.699 13.451C123.363 13.7062 122.96 13.8966 122.49 14.022L122.127 14.163H119.084L119.071 13.1084H121.368C121.834 13.1084 122.221 13.0278 122.53 12.8666C122.839 12.7009 123.072 12.4792 123.229 12.2015C123.385 11.9239 123.464 11.6171 123.464 11.2812C123.464 10.9051 123.39 10.5759 123.242 10.2938C123.094 10.0116 122.861 9.79444 122.544 9.64218C122.23 9.48543 121.825 9.40706 121.328 9.40706H119.386V18.1263H118.09V8.3457ZM123.806 18.1263L121.428 13.6928L122.779 13.6861L125.19 18.0457V18.1263H123.806Z" fill="#333333"></path><path d="M116.011 12.9266V13.5446C116.011 14.2791 115.919 14.9374 115.735 15.5195C115.552 16.1017 115.287 16.5966 114.943 17.0041C114.598 17.4116 114.184 17.7229 113.7 17.9378C113.221 18.1528 112.683 18.2603 112.088 18.2603C111.51 18.2603 110.979 18.1528 110.496 17.9378C110.016 17.7229 109.6 17.4116 109.246 17.0041C108.897 16.5966 108.626 16.1017 108.433 15.5195C108.241 14.9374 108.145 14.2791 108.145 13.5446V12.9266C108.145 12.1922 108.239 11.5361 108.427 10.9584C108.619 10.3762 108.89 9.88135 109.239 9.47382C109.589 9.06182 110.003 8.74834 110.482 8.53338C110.966 8.31842 111.497 8.21094 112.074 8.21094C112.67 8.21094 113.207 8.31842 113.686 8.53338C114.17 8.74834 114.584 9.06182 114.929 9.47382C115.278 9.88135 115.545 10.3762 115.729 10.9584C115.917 11.5361 116.011 12.1922 116.011 12.9266ZM114.728 13.5446V12.9132C114.728 12.331 114.667 11.816 114.546 11.3682C114.43 10.9203 114.257 10.5441 114.029 10.2396C113.801 9.93509 113.521 9.70446 113.189 9.54771C112.862 9.39097 112.491 9.3126 112.074 9.3126C111.671 9.3126 111.306 9.39097 110.979 9.54771C110.657 9.70446 110.379 9.93509 110.146 10.2396C109.918 10.5441 109.741 10.9203 109.616 11.3682C109.49 11.816 109.428 12.331 109.428 12.9132V13.5446C109.428 14.1313 109.49 14.6508 109.616 15.1031C109.741 15.5509 109.92 15.9293 110.153 16.2383C110.39 16.5428 110.67 16.7735 110.993 16.9302C111.32 17.087 111.685 17.1653 112.088 17.1653C112.509 17.1653 112.883 17.087 113.21 16.9302C113.536 16.7735 113.812 16.5428 114.036 16.2383C114.264 15.9293 114.437 15.5509 114.553 15.1031C114.669 14.6508 114.728 14.1313 114.728 13.5446Z" fill="#333333"></path><path d="M102.036 8.3457V18.1263H100.739V8.3457H102.036ZM106.133 12.7456V13.807H101.754V12.7456H106.133ZM106.798 8.3457V9.40706H101.754V8.3457H106.798Z" fill="#333333"></path><path d="M96.0071 8.3457V18.1263H94.7308V8.3457H96.0071ZM99.1509 8.3457V9.40706H91.5938V8.3457H99.1509Z" fill="#333333"></path><path d="M87.775 9.21226L84.5372 18.1263H83.2139L86.9421 8.3457H87.7952L87.775 9.21226ZM90.4889 18.1263L87.2444 9.21226L87.2242 8.3457H88.0773L91.819 18.1263H90.4889ZM90.321 14.5056V15.567H84.8261V14.5056H90.321Z" fill="#333333"></path><path d="M82.3974 17.0717V18.1263H77.507V17.0717H82.3974ZM77.7623 8.3457V18.1263H76.4658V8.3457H77.7623Z" fill="#333333"></path><path d="M71.2567 14.2907H68.6436V13.236H71.2567C71.7627 13.236 72.1725 13.1554 72.486 12.9942C72.7995 12.833 73.0279 12.6091 73.1712 12.3224C73.319 12.0358 73.3929 11.7089 73.3929 11.3417C73.3929 11.0058 73.319 10.6901 73.1712 10.3945C73.0279 10.099 72.7995 9.86161 72.486 9.68248C72.1725 9.49887 71.7627 9.40706 71.2567 9.40706H68.9459V18.1263H67.6494V8.3457H71.2567C71.9956 8.3457 72.6203 8.47334 73.1309 8.7286C73.6414 8.98386 74.0288 9.33765 74.293 9.78996C74.5572 10.2378 74.6893 10.7506 74.6893 11.3283C74.6893 11.9552 74.5572 12.4904 74.293 12.9337C74.0288 13.3771 73.6414 13.7152 73.1309 13.9481C72.6203 14.1765 71.9956 14.2907 71.2567 14.2907Z" fill="#333333"></path><path d="M58.4365 8.3457H62.0841C62.832 8.3457 63.4746 8.45766 64.012 8.68158C64.5539 8.90549 64.9704 9.23689 65.2615 9.67576C65.5526 10.1146 65.6981 10.6543 65.6981 11.2947C65.6981 11.8186 65.6085 12.2687 65.4294 12.6449C65.2548 13.0166 65.0062 13.3278 64.6838 13.5786C64.3658 13.8249 63.9919 14.022 63.562 14.1698L62.9238 14.5056H59.7531L59.7397 12.9337H62.0975C62.4513 12.9337 62.7447 12.871 62.9775 12.7456C63.2104 12.6203 63.3851 12.4456 63.5015 12.2217C63.6224 11.9978 63.6829 11.738 63.6829 11.4425C63.6829 11.129 63.6247 10.858 63.5082 10.6296C63.3918 10.4013 63.2149 10.2266 62.9775 10.1057C62.7402 9.98477 62.4424 9.92431 62.0841 9.92431H60.4518V18.1263H58.4365V8.3457ZM63.9045 18.1263L61.6743 13.7667L63.8038 13.7533L66.0609 18.0323V18.1263H63.9045Z" fill="#333333"></path><path d="M54.6308 8.3457H56.6393V14.8079C56.6393 15.5603 56.4781 16.194 56.1556 16.709C55.8377 17.224 55.3965 17.6113 54.8323 17.8711C54.2725 18.1308 53.6276 18.2607 52.8976 18.2607C52.1677 18.2607 51.5183 18.1308 50.9496 17.8711C50.3853 17.6113 49.942 17.224 49.6195 16.709C49.3016 16.194 49.1426 15.5603 49.1426 14.8079V8.3457H51.1578V14.8079C51.1578 15.2468 51.2272 15.6051 51.3661 15.8827C51.5049 16.1604 51.7042 16.3641 51.9639 16.494C52.2281 16.6239 52.5394 16.6888 52.8976 16.6888C53.2649 16.6888 53.5761 16.6239 53.8314 16.494C54.0911 16.3641 54.2882 16.1604 54.4225 15.8827C54.5613 15.6051 54.6308 15.2468 54.6308 14.8079V8.3457Z" fill="#333333"></path><path d="M47.6412 13.0072V13.4707C47.6412 14.2141 47.5404 14.8814 47.3389 15.4725C47.1374 16.0637 46.853 16.5675 46.4858 16.984C46.1186 17.396 45.6797 17.7117 45.1692 17.9311C44.6631 18.1506 44.1011 18.2603 43.4831 18.2603C42.8695 18.2603 42.3075 18.1506 41.797 17.9311C41.2909 17.7117 40.8521 17.396 40.4804 16.984C40.1087 16.5675 39.8198 16.0637 39.6138 15.4725C39.4123 14.8814 39.3115 14.2141 39.3115 13.4707V13.0072C39.3115 12.2593 39.4123 11.5921 39.6138 11.0054C39.8153 10.4143 40.0997 9.91046 40.4669 9.49398C40.8386 9.07749 41.2775 8.75953 41.7836 8.54009C42.2941 8.32066 42.8561 8.21094 43.4696 8.21094C44.0876 8.21094 44.6497 8.32066 45.1557 8.54009C45.6663 8.75953 46.1051 9.07749 46.4724 9.49398C46.8441 9.91046 47.1307 10.4143 47.3322 11.0054C47.5382 11.5921 47.6412 12.2593 47.6412 13.0072ZM45.6058 13.4707V12.9938C45.6058 12.4743 45.5588 12.0175 45.4647 11.6234C45.3707 11.2293 45.2319 10.8979 45.0482 10.6292C44.8646 10.3605 44.6407 10.159 44.3765 10.0247C44.1123 9.88583 43.81 9.81641 43.4696 9.81641C43.1293 9.81641 42.827 9.88583 42.5628 10.0247C42.303 10.159 42.0814 10.3605 41.8978 10.6292C41.7186 10.8979 41.582 11.2293 41.488 11.6234C41.3939 12.0175 41.3469 12.4743 41.3469 12.9938V13.4707C41.3469 13.9857 41.3939 14.4425 41.488 14.8411C41.582 15.2352 41.7209 15.5688 41.9045 15.842C42.0881 16.1107 42.312 16.3145 42.5762 16.4533C42.8404 16.5921 43.1427 16.6615 43.4831 16.6615C43.8234 16.6615 44.1257 16.5921 44.3899 16.4533C44.6542 16.3145 44.8758 16.1107 45.055 15.842C45.2341 15.5688 45.3707 15.2352 45.4647 14.8411C45.5588 14.4425 45.6058 13.9857 45.6058 13.4707Z" fill="#333333"></path><path d="M32.4973 8.3457L34.5394 12.8061L36.5815 8.3457H38.7781L35.5604 14.5661V18.1263H33.5183V14.5661L30.2939 8.3457H32.4973Z" fill="#333333"></path><defs><linearGradient id="paint0_linear_308_14538" x1="22.5789" y1="2.05263" x2="2.73684" y2="24.6316" gradientUnits="userSpaceOnUse"><stop stop-color="#06E8F5"></stop><stop offset="1" stop-color="#0033FF"></stop></linearGradient><linearGradient id="paint1_linear_308_14538" x1="22.5789" y1="2.05263" x2="2.73684" y2="24.6316" gradientUnits="userSpaceOnUse"><stop stop-color="#06E8F5"></stop><stop offset="1" stop-color="#0033FF"></stop></linearGradient><linearGradient id="paint2_linear_308_14538" x1="22.5789" y1="2.05263" x2="2.73684" y2="24.6316" gradientUnits="userSpaceOnUse"><stop stop-color="#06E8F5"></stop><stop offset="1" stop-color="#0033FF"></stop></linearGradient><linearGradient id="paint3_linear_308_14538" x1="22.5789" y1="2.05263" x2="2.73684" y2="24.6316" gradientUnits="userSpaceOnUse"><stop stop-color="#06E8F5"></stop><stop offset="1" stop-color="#0033FF"></stop></linearGradient><linearGradient id="paint4_linear_308_14538" x1="22.5789" y1="2.05263" x2="2.73684" y2="24.6316" gradientUnits="userSpaceOnUse"><stop stop-color="#06E8F5"></stop><stop offset="1" stop-color="#0033FF"></stop></linearGradient><linearGradient id="paint5_linear_308_14538" x1="22.5789" y1="2.05263" x2="2.73684" y2="24.6316" gradientUnits="userSpaceOnUse"><stop stop-color="#06E8F5"></stop><stop offset="1" stop-color="#0033FF"></stop></linearGradient></defs></svg>