<svg xmlns="http://www.w3.org/2000/svg" width="140" height="18" viewBox="0 0 140 18" fill="none"><path d="M2.05772 6.04743C3.07388 6.04743 3.81422 6.25276 4.27875 6.66343C4.74328 7.07409 4.97555 7.65276 4.97555 8.39943C4.97555 8.72796 4.92111 9.04529 4.81224 9.35143C4.71062 9.65009 4.54005 9.91889 4.30053 10.1578C4.06101 10.3968 3.74164 10.5872 3.34244 10.729C2.94323 10.8634 2.4533 10.9306 1.87264 10.9306H0.979867V14.0442H0V6.04743H2.05772ZM1.97062 6.90983H0.979867V10.0682H1.76376C2.25732 10.0682 2.66742 10.016 2.99404 9.91143C3.32066 9.79943 3.56381 9.62396 3.7235 9.38503C3.88318 9.14609 3.96302 8.83249 3.96302 8.44423C3.96302 7.92903 3.80334 7.54449 3.48397 7.29063C3.16461 7.03676 2.66016 6.90983 1.97062 6.90983Z" fill="#303133"></path><path d="M11.5349 11.0314C11.5349 11.5317 11.4695 11.976 11.3389 12.3642C11.2155 12.745 11.0341 13.0698 10.7945 13.3386C10.5623 13.6074 10.2756 13.8128 9.93442 13.9546C9.60054 14.089 9.22674 14.1562 8.81302 14.1562C8.42833 14.1562 8.07268 14.089 7.74605 13.9546C7.41943 13.8128 7.13636 13.6074 6.89684 13.3386C6.65731 13.0698 6.4686 12.745 6.33069 12.3642C6.20004 11.976 6.13472 11.5317 6.13472 11.0314C6.13472 10.3669 6.24359 9.80689 6.46134 9.35143C6.67909 8.88849 6.99119 8.53756 7.39766 8.29863C7.80412 8.05223 8.2868 7.92903 8.84568 7.92903C9.37554 7.92903 9.84007 8.05223 10.2393 8.29863C10.6457 8.53756 10.9615 8.88849 11.1865 9.35143C11.4187 9.80689 11.5349 10.3669 11.5349 11.0314ZM7.12547 11.0314C7.12547 11.5018 7.18354 11.9125 7.29967 12.2634C7.42306 12.6069 7.61177 12.872 7.86581 13.0586C8.11985 13.2453 8.44285 13.3386 8.83479 13.3386C9.22674 13.3386 9.54974 13.2453 9.80378 13.0586C10.0578 12.872 10.2429 12.6069 10.359 12.2634C10.4824 11.9125 10.5441 11.5018 10.5441 11.0314C10.5441 10.5536 10.4824 10.1466 10.359 9.81063C10.2356 9.47463 10.0469 9.21703 9.79289 9.03783C9.54611 8.85116 9.22311 8.75783 8.82391 8.75783C8.22873 8.75783 7.79686 8.95943 7.52831 9.36263C7.25975 9.76583 7.12547 10.3221 7.12547 11.0314Z" fill="#303133"></path><path d="M16.6077 10.6506C16.5642 10.4938 16.5206 10.3408 16.4771 10.1914C16.4335 10.0346 16.3936 9.88903 16.3573 9.75463C16.3283 9.61276 16.2993 9.48209 16.2702 9.36263C16.2412 9.24316 16.2194 9.14236 16.2049 9.06023H16.1613C16.1468 9.14236 16.1251 9.24316 16.096 9.36263C16.0742 9.48209 16.0452 9.61276 16.0089 9.75463C15.9799 9.89649 15.9436 10.0458 15.9 10.2026C15.8638 10.352 15.8202 10.505 15.7694 10.6618L14.7242 14.033H13.6355L12.035 8.02983H13.0258L13.8314 11.233C13.8895 11.4496 13.9439 11.6698 13.9947 11.8938C14.0456 12.1104 14.0891 12.3194 14.1254 12.521C14.1689 12.7152 14.198 12.8832 14.2125 13.025H14.256C14.2778 12.9354 14.3032 12.8234 14.3323 12.689C14.3613 12.5546 14.3903 12.4128 14.4194 12.2634C14.4556 12.1141 14.4919 11.9648 14.5282 11.8154C14.5718 11.6661 14.6117 11.5317 14.648 11.4122L15.6823 8.02983H16.7275L17.7291 11.4122C17.7799 11.584 17.8307 11.7669 17.8816 11.961C17.9396 12.1552 17.9904 12.3456 18.034 12.5322C18.0775 12.7114 18.1066 12.872 18.1211 13.0138H18.1646C18.1791 12.8869 18.2045 12.7301 18.2408 12.5434C18.2844 12.3493 18.3316 12.1402 18.3824 11.9162C18.4404 11.6848 18.4985 11.457 18.5566 11.233L19.3731 8.02983H20.353L18.7308 14.033H17.6094L16.6077 10.6506Z" fill="#303133"></path><path d="M23.6533 7.92903C24.1542 7.92903 24.5824 8.04103 24.938 8.26503C25.301 8.48903 25.5768 8.80636 25.7655 9.21703C25.9615 9.62023 26.0594 10.0944 26.0594 10.6394V11.233H22.0638C22.0783 11.9125 22.2452 12.4314 22.5646 12.7898C22.8912 13.1408 23.3449 13.3162 23.9255 13.3162C24.2957 13.3162 24.6223 13.2826 24.9054 13.2154C25.1957 13.1408 25.4933 13.0362 25.7981 12.9018V13.7642C25.5006 13.8986 25.2066 13.9957 24.9163 14.0554C24.6259 14.1226 24.2812 14.1562 23.882 14.1562C23.3303 14.1562 22.8404 14.0405 22.4122 13.809C21.9912 13.5776 21.6609 13.2341 21.4214 12.7786C21.1891 12.3157 21.073 11.752 21.073 11.0874C21.073 10.4304 21.1783 9.86663 21.3887 9.39623C21.6065 8.92583 21.9077 8.56369 22.2924 8.30983C22.6843 8.05596 23.138 7.92903 23.6533 7.92903ZM23.6424 8.73543C23.1852 8.73543 22.8223 8.88849 22.5537 9.19463C22.2924 9.49329 22.1364 9.91143 22.0855 10.449H25.0578C25.0578 10.1056 25.007 9.80689 24.9054 9.55303C24.8038 9.29916 24.6477 9.10129 24.4372 8.95943C24.234 8.81009 23.9691 8.73543 23.6424 8.73543Z" fill="#303133"></path><path d="M30.2669 7.92903C30.3758 7.92903 30.4919 7.93649 30.6153 7.95143C30.746 7.95889 30.8585 7.97383 30.9528 7.99623L30.8331 8.90343C30.7387 8.88103 30.6335 8.86236 30.5173 8.84743C30.4085 8.83249 30.3032 8.82503 30.2016 8.82503C29.9766 8.82503 29.7625 8.87356 29.5592 8.97063C29.356 9.06769 29.1746 9.20583 29.0149 9.38503C28.8552 9.55676 28.7282 9.76583 28.6338 10.0122C28.5467 10.2586 28.5032 10.5349 28.5032 10.841V14.0442H27.5451V8.04103H28.329L28.4378 9.13863H28.4814C28.6048 8.91463 28.7536 8.71303 28.9278 8.53383C29.102 8.34716 29.3016 8.20156 29.5266 8.09703C29.7516 7.98503 29.9984 7.92903 30.2669 7.92903Z" fill="#303133"></path><path d="M34.0836 7.92903C34.5844 7.92903 35.0126 8.04103 35.3683 8.26503C35.7312 8.48903 36.007 8.80636 36.1957 9.21703C36.3917 9.62023 36.4897 10.0944 36.4897 10.6394V11.233H32.494C32.5085 11.9125 32.6754 12.4314 32.9948 12.7898C33.3214 13.1408 33.7751 13.3162 34.3557 13.3162C34.7259 13.3162 35.0525 13.2826 35.3356 13.2154C35.6259 13.1408 35.9235 13.0362 36.2284 12.9018V13.7642C35.9308 13.8986 35.6368 13.9957 35.3465 14.0554C35.0562 14.1226 34.7114 14.1562 34.3122 14.1562C33.7606 14.1562 33.2706 14.0405 32.8424 13.809C32.4214 13.5776 32.0912 13.2341 31.8516 12.7786C31.6194 12.3157 31.5032 11.752 31.5032 11.0874C31.5032 10.4304 31.6085 9.86663 31.819 9.39623C32.0367 8.92583 32.3379 8.56369 32.7226 8.30983C33.1146 8.05596 33.5682 7.92903 34.0836 7.92903ZM34.0727 8.73543C33.6154 8.73543 33.2525 8.88849 32.9839 9.19463C32.7226 9.49329 32.5666 9.91143 32.5158 10.449H35.488C35.488 10.1056 35.4372 9.80689 35.3356 9.55303C35.234 9.29916 35.0779 9.10129 34.8674 8.95943C34.6642 8.81009 34.3993 8.73543 34.0727 8.73543Z" fill="#303133"></path><path d="M40.0439 14.1562C39.3181 14.1562 38.7374 13.8986 38.3019 13.3834C37.8664 12.8608 37.6487 12.0842 37.6487 11.0538C37.6487 10.0234 37.8664 9.24689 38.3019 8.72423C38.7447 8.19409 39.329 7.92903 40.0548 7.92903C40.3596 7.92903 40.6246 7.97009 40.8496 8.05223C41.0746 8.12689 41.2705 8.23143 41.4375 8.36583C41.6044 8.50023 41.746 8.64956 41.8621 8.81383H41.9274C41.9202 8.71676 41.9056 8.57489 41.8839 8.38823C41.8694 8.19409 41.8621 8.04103 41.8621 7.92903V5.53223H42.8202V14.0442H42.0472L41.9057 13.2378H41.8621C41.746 13.4096 41.6044 13.5664 41.4375 13.7082C41.2705 13.8426 41.0709 13.9509 40.8387 14.033C40.6137 14.1152 40.3487 14.1562 40.0439 14.1562ZM40.1963 13.3386C40.8133 13.3386 41.2451 13.1669 41.4919 12.8234C41.746 12.4725 41.873 11.9461 41.873 11.2442V11.065C41.873 10.3184 41.7532 9.74716 41.5137 9.35143C41.2742 8.94823 40.8314 8.74663 40.1854 8.74663C39.6701 8.74663 39.2818 8.95943 39.0205 9.38503C38.7664 9.80316 38.6394 10.3669 38.6394 11.0762C38.6394 11.793 38.7664 12.3493 39.0205 12.745C39.2818 13.1408 39.6737 13.3386 40.1963 13.3386Z" fill="#303133"></path><path d="M48.4599 7.60423C48.4599 7.85809 48.4526 8.09703 48.4381 8.32103C48.4308 8.53756 48.4199 8.70929 48.4054 8.83623H48.4599C48.6268 8.58236 48.8554 8.36956 49.1458 8.19783C49.4361 8.02609 49.8099 7.94023 50.2672 7.94023C50.993 7.94023 51.5737 8.20156 52.0092 8.72423C52.4519 9.23943 52.6733 10.0122 52.6733 11.0426C52.6733 11.7296 52.5717 12.3045 52.3685 12.7674C52.1725 13.2304 51.893 13.5776 51.5301 13.809C51.1672 14.0405 50.7462 14.1562 50.2672 14.1562C49.8099 14.1562 49.4361 14.0704 49.1458 13.8986C48.8554 13.7269 48.6268 13.5216 48.4599 13.2826H48.3837L48.1877 14.0442H47.5018V5.53223H48.4599V7.60423ZM50.1039 8.75783C49.6901 8.75783 49.3635 8.83996 49.124 9.00423C48.8845 9.16103 48.7139 9.40743 48.6123 9.74343C48.5107 10.072 48.4599 10.4938 48.4599 11.009V11.0538C48.4599 11.793 48.576 12.3605 48.8083 12.7562C49.0478 13.1445 49.4869 13.3386 50.1256 13.3386C50.6482 13.3386 51.0366 13.1408 51.2906 12.745C51.5519 12.3493 51.6825 11.7781 51.6825 11.0314C51.6825 10.2773 51.5519 9.70983 51.2906 9.32903C51.0366 8.94823 50.641 8.75783 50.1039 8.75783Z" fill="#303133"></path><path d="M53.0729 8.04103H54.0963L55.3593 11.457C55.4318 11.6586 55.4972 11.8528 55.5552 12.0394C55.6206 12.2261 55.6786 12.409 55.7294 12.5882C55.7802 12.76 55.8202 12.928 55.8492 13.0922H55.8927C55.9363 12.9056 56.0052 12.6629 56.0996 12.3642C56.194 12.0581 56.292 11.752 56.3936 11.4458L57.5803 8.04103H58.6146L56.0996 14.873C55.9617 15.2464 55.7984 15.5712 55.6097 15.8474C55.4282 16.1312 55.2032 16.3477 54.9347 16.497C54.6734 16.6538 54.354 16.7322 53.9766 16.7322C53.8024 16.7322 53.6499 16.721 53.5193 16.6986C53.3886 16.6837 53.2761 16.665 53.1818 16.6426V15.8586C53.2616 15.8736 53.356 15.8885 53.4649 15.9034C53.581 15.9184 53.7007 15.9258 53.8241 15.9258C54.0491 15.9258 54.2415 15.881 54.4012 15.7914C54.5681 15.7093 54.7096 15.5861 54.8258 15.4218C54.9419 15.265 55.0399 15.0784 55.1197 14.8618L55.4246 14.0666L53.0729 8.04103Z" fill="#303133"></path><path d="M126.81 16.9383C126.545 16.9383 126.265 16.9179 125.97 16.8772C125.684 16.8466 125.46 16.8007 125.297 16.7396V15.2724C125.552 15.3743 125.868 15.4252 126.245 15.4252C126.632 15.4252 126.922 15.3386 127.116 15.1654C127.309 14.9922 127.478 14.7171 127.62 14.3401L127.911 13.5759L124.747 6.57593H126.688L128.95 11.9252L131.074 6.57593H133L129.79 14.5693C129.464 15.3743 129.067 15.9703 128.598 16.3575C128.14 16.7447 127.544 16.9383 126.81 16.9383Z" fill="#303133"></path><path d="M116.411 6.5763H118.276V7.56974C118.622 7.15199 119.035 6.84631 119.513 6.65272C119.992 6.44894 120.497 6.34705 121.027 6.34705C122.015 6.34705 122.754 6.61706 123.243 7.15708C123.732 7.68692 123.976 8.39506 123.976 9.28152V13.9125H122.051V9.46492C122.051 8.39506 121.551 7.86013 120.553 7.86013C120.115 7.86013 119.702 7.96712 119.315 8.18109C118.928 8.38488 118.602 8.69564 118.337 9.1134V13.9125H116.411V6.5763Z" fill="#303133"></path><path d="M110.28 14.1417C109.403 14.1417 108.685 13.9125 108.125 13.454C107.564 12.9853 107.284 12.3586 107.284 11.5741C107.284 10.7589 107.549 10.1221 108.079 9.66361C108.609 9.2051 109.352 8.97584 110.31 8.97584C111.237 8.97584 112.037 9.16434 112.71 9.54134V9.34265C112.71 8.82301 112.547 8.44601 112.221 8.21166C111.905 7.97731 111.39 7.86013 110.677 7.86013C110.229 7.86013 109.785 7.90599 109.347 7.99769C108.909 8.0792 108.522 8.19638 108.186 8.34921V6.83612C108.491 6.69348 108.899 6.5763 109.408 6.4846C109.928 6.3929 110.427 6.34705 110.906 6.34705C112.18 6.34705 113.122 6.62215 113.734 7.17237C114.345 7.71239 114.651 8.46639 114.651 9.43436V13.9125H112.832V13.1942C112.516 13.4998 112.154 13.7342 111.747 13.8972C111.349 14.0602 110.86 14.1417 110.28 14.1417ZM110.753 12.7356C111.181 12.7356 111.568 12.6541 111.915 12.4911C112.261 12.3179 112.526 12.0835 112.71 11.788V10.978C112.149 10.5806 111.507 10.3819 110.784 10.3819C109.755 10.3819 109.24 10.7793 109.24 11.5741C109.24 11.9613 109.368 12.2517 109.622 12.4452C109.887 12.6388 110.264 12.7356 110.753 12.7356Z" fill="#303133"></path><path d="M97.8137 6.5763H99.6783V7.46276C100.076 7.08576 100.509 6.80556 100.977 6.62215C101.446 6.43875 101.981 6.34705 102.582 6.34705C103.326 6.34705 103.988 6.51007 104.569 6.83612C105.16 7.15199 105.619 7.60541 105.945 8.19638C106.281 8.77716 106.449 9.45473 106.449 10.2291C106.449 10.9933 106.281 11.6709 105.945 12.2618C105.619 12.8528 105.16 13.3164 104.569 13.6527C103.988 13.9787 103.326 14.1417 102.582 14.1417C102.022 14.1417 101.492 14.0653 100.993 13.9125C100.504 13.7495 100.086 13.51 99.7395 13.1942V17.2596H97.8137V6.5763ZM102.108 12.6287C102.801 12.6287 103.372 12.4045 103.82 11.9562C104.269 11.5078 104.493 10.9322 104.493 10.2291C104.493 9.52606 104.269 8.95547 103.82 8.51733C103.372 8.0792 102.801 7.86013 102.108 7.86013C101.558 7.86013 101.069 8.00788 100.641 8.30336C100.213 8.59885 99.9127 8.99622 99.7395 9.49549V10.978C99.9025 11.4773 100.198 11.8798 100.626 12.1854C101.064 12.4809 101.558 12.6287 102.108 12.6287Z" fill="#303133"></path><path d="M84.4852 6.5763H86.2887V7.53918C86.6148 7.15199 86.9969 6.8565 87.435 6.65272C87.8731 6.44894 88.3163 6.34705 88.7647 6.34705C89.3353 6.34705 89.7938 6.44384 90.1402 6.63744C90.4866 6.82084 90.7465 7.10104 90.9197 7.47804C91.2457 7.11123 91.638 6.83103 92.0965 6.63744C92.5652 6.44384 93.0288 6.34705 93.4873 6.34705C94.4044 6.34705 95.0616 6.5763 95.4589 7.03481C95.8563 7.49332 96.055 8.16581 96.055 9.05226V13.9125H94.2057V9.31209C94.2057 8.79244 94.0987 8.42054 93.8847 8.19638C93.6809 7.97222 93.3498 7.86013 92.8913 7.86013C92.5652 7.86013 92.2646 7.92636 91.9895 8.05882C91.7246 8.18109 91.4801 8.39506 91.2559 8.70074C91.2763 9.02679 91.2865 9.29171 91.2865 9.49549V13.9125H89.4219V9.28152C89.4219 8.75168 89.3353 8.38488 89.162 8.18109C88.9888 7.96712 88.673 7.86013 88.2145 7.86013C87.5216 7.86013 86.9001 8.25242 86.3498 9.03698V13.9125H84.4852V6.5763Z" fill="#303133"></path><path d="M78.668 14.1417C77.8121 14.1417 77.0581 13.9889 76.406 13.6832C75.764 13.3674 75.2648 12.919 74.9082 12.3383C74.5515 11.7473 74.3732 11.0493 74.3732 10.2444C74.3732 9.45983 74.5464 8.77716 74.8929 8.19638C75.2495 7.60541 75.7539 7.15199 76.406 6.83612C77.0581 6.51007 77.8121 6.34705 78.668 6.34705C79.5238 6.34705 80.2727 6.51007 80.9147 6.83612C81.5668 7.15199 82.0711 7.60541 82.4277 8.19638C82.7844 8.77716 82.9627 9.45983 82.9627 10.2444C82.9627 11.0493 82.7844 11.7473 82.4277 12.3383C82.0711 12.919 81.5668 13.3674 80.9147 13.6832C80.2727 13.9889 79.5238 14.1417 78.668 14.1417ZM78.668 12.6287C79.371 12.6287 79.9314 12.4096 80.3492 11.9715C80.7669 11.5231 80.9758 10.9474 80.9758 10.2444C80.9758 9.50059 80.7669 8.91981 80.3492 8.50205C79.9416 8.07411 79.3812 7.86013 78.668 7.86013C77.9547 7.86013 77.3892 8.07411 76.9715 8.50205C76.5639 8.91981 76.3601 9.50059 76.3601 10.2444C76.3601 10.9474 76.569 11.5231 76.9867 11.9715C77.4045 12.4096 77.9649 12.6287 78.668 12.6287Z" fill="#303133"></path><path d="M69.7161 14.1418C68.5953 14.1418 67.6019 13.9177 66.7358 13.4693C65.8697 13.0108 65.1972 12.3638 64.7183 11.5283C64.2394 10.6826 64 9.69936 64 8.57856C64 7.45775 64.2394 6.47959 64.7183 5.64408C65.1972 4.79838 65.8697 4.14628 66.7358 3.68777C67.6019 3.22926 68.5953 3 69.7161 3C71.1935 3 72.4264 3.35153 73.4148 4.05458V5.90391C72.5283 5.14991 71.3515 4.77291 69.8842 4.77291C69.0997 4.77291 68.4119 4.93084 67.8209 5.24671C67.23 5.55238 66.7714 5.99051 66.4454 6.56111C66.1193 7.1317 65.9563 7.80418 65.9563 8.57856C65.9563 9.35293 66.1193 10.0254 66.4454 10.596C66.7816 11.1666 67.2452 11.6098 67.8362 11.9257C68.4272 12.2314 69.1099 12.3842 69.8842 12.3842C70.6382 12.3842 71.3107 12.2925 71.9017 12.1091C72.4927 11.9155 73.0378 11.6098 73.537 11.1921V13.0414C72.5996 13.775 71.326 14.1418 69.7161 14.1418Z" fill="#303133"></path></svg>