<svg xmlns="http://www.w3.org/2000/svg" width="674" height="760" viewBox="0 0 674 760" fill="none"><g filter="url(#filter0_bdi_37_1748)"><g clip-path="url(#clip0_37_1748)"><path d="M440.641 305.68V348C440.641 474.16 318.561 532 317.361 532.56C316.308 533.047 315.162 533.3 314.001 533.3C312.841 533.3 311.694 533.047 310.641 532.56C309.441 532 187.361 473.76 187.361 348V305.68C187.362 304.292 187.723 302.927 188.41 301.721C189.098 300.515 190.087 299.508 191.281 298.8L309.921 228C311.137 227.298 312.517 226.928 313.921 226.928C315.326 226.928 316.705 227.298 317.921 228L436.561 298.56C437.821 299.268 438.865 300.303 439.584 301.557C440.302 302.811 440.668 304.235 440.641 305.68ZM370.561 350.4C369.062 348.91 367.035 348.074 364.921 348.074C362.808 348.074 360.78 348.91 359.281 350.4L304.241 405.44L273.201 374.32C271.671 373.009 269.702 372.325 267.689 372.402C265.676 372.48 263.766 373.315 262.341 374.74C260.916 376.164 260.081 378.074 260.004 380.088C259.926 382.101 260.611 384.07 261.921 385.6L298.641 422.32C300.14 423.81 302.168 424.646 304.281 424.646C306.395 424.646 308.422 423.81 309.921 422.32L370.641 361.6C372.131 360.101 372.968 358.074 372.968 355.96C372.968 353.847 372.131 351.819 370.641 350.32L370.561 350.4Z" fill="url(#paint0_linear_37_1748)"></path><path d="M391.681 607.36C391.97 608.384 392.053 609.456 391.923 610.513C391.794 611.57 391.454 612.59 390.925 613.514C390.396 614.437 389.688 615.246 388.843 615.893C387.997 616.54 387.031 617.011 386.001 617.28C344.442 629.847 300.324 631.364 258.001 621.68C256.976 621.443 256.008 621.008 255.153 620.397C254.297 619.787 253.569 619.014 253.012 618.122C252.455 617.231 252.079 616.239 251.905 615.202C251.732 614.165 251.764 613.104 252.001 612.08C252.237 611.055 252.673 610.088 253.283 609.232C253.893 608.376 254.666 607.649 255.558 607.092C256.449 606.534 257.442 606.158 258.479 605.985C259.515 605.811 260.576 605.843 261.601 606.08C301.273 615.191 342.638 613.785 381.601 602C382.614 601.68 383.681 601.565 384.74 601.662C385.798 601.759 386.827 602.066 387.765 602.565C388.703 603.064 389.533 603.745 390.205 604.568C390.878 605.392 391.379 606.341 391.681 607.36ZM530.001 485.84C528.132 484.848 525.947 484.636 523.923 485.25C521.9 485.865 520.201 487.256 519.201 489.12C500.027 525.089 471.788 555.425 437.281 577.12C435.477 578.244 434.194 580.039 433.714 582.11C433.234 584.18 433.596 586.356 434.721 588.16C435.845 589.963 437.64 591.246 439.71 591.726C441.781 592.206 443.957 591.844 445.761 590.72C482.515 567.478 512.571 535.05 532.961 496.64C533.978 494.81 534.239 492.655 533.685 490.636C533.132 488.616 531.809 486.895 530.001 485.84ZM498.001 500C521.287 464.314 533.659 422.611 533.601 380C533.601 377.878 532.758 375.843 531.257 374.343C529.757 372.843 527.722 372 525.601 372C523.479 372 521.444 372.843 519.944 374.343C518.443 375.843 517.601 377.878 517.601 380C517.659 419.483 506.205 458.126 484.641 491.2C467.021 518.156 443.318 540.598 415.441 556.72C414.484 557.22 413.639 557.908 412.956 558.743C412.273 559.579 411.766 560.543 411.466 561.58C411.165 562.616 411.077 563.702 411.207 564.773C411.337 565.844 411.683 566.878 412.223 567.812C412.763 568.746 413.486 569.561 414.349 570.209C415.212 570.856 416.197 571.322 417.245 571.579C418.293 571.835 419.382 571.878 420.447 571.702C421.512 571.527 422.53 571.139 423.441 570.56C453.469 553.193 479.006 529.026 498.001 500ZM317.521 555.52C315.399 555.52 313.364 556.363 311.864 557.863C310.363 559.363 309.521 561.398 309.521 563.52C309.521 565.642 310.363 567.676 311.864 569.177C313.364 570.677 315.399 571.52 317.521 571.52C367.093 570.892 414.426 550.775 449.281 515.52C476.401 487.28 505.281 430.24 505.281 380.16C505.281 378.038 504.438 376.003 502.937 374.503C501.437 373.003 499.402 372.16 497.281 372.16C495.159 372.16 493.124 373.003 491.624 374.503C490.123 376.003 489.281 378.038 489.281 380.16C489.281 428.96 459.121 482.24 437.761 504.48C405.917 536.592 362.74 554.92 317.521 555.52ZM244.001 158.32C244.77 158.433 245.551 158.433 246.321 158.32C285.285 146.55 326.646 145.143 366.321 154.24C368.432 154.728 370.65 154.357 372.488 153.209C374.326 152.062 375.633 150.231 376.121 148.12C376.609 146.009 376.238 143.79 375.09 141.952C373.942 140.114 372.112 138.808 370.001 138.32C327.675 128.651 283.562 130.167 242.001 142.72C239.879 143.027 237.966 144.165 236.683 145.883C235.401 147.601 234.853 149.758 235.161 151.88C235.468 154.002 236.606 155.914 238.324 157.197C240.042 158.48 242.199 159.027 244.321 158.72L244.001 158.32ZM98.0005 274.16C99.8686 275.152 102.054 275.364 104.078 274.749C106.102 274.134 107.8 272.743 108.801 270.88C127.977 234.912 156.216 204.578 190.721 182.88C191.875 182.513 192.932 181.889 193.81 181.054C194.689 180.219 195.366 179.196 195.791 178.061C196.216 176.926 196.377 175.71 196.263 174.503C196.15 173.297 195.763 172.132 195.133 171.097C194.503 170.062 193.647 169.183 192.628 168.527C191.609 167.872 190.454 167.456 189.251 167.312C188.048 167.168 186.827 167.299 185.682 167.695C184.537 168.091 183.497 168.743 182.641 169.6C145.778 192.697 115.583 225.015 95.0405 263.36C94.0226 265.189 93.7624 267.345 94.3158 269.364C94.8692 271.383 96.1921 273.105 98.0005 274.16ZM212.321 203.28C213.277 202.78 214.122 202.091 214.805 201.256C215.488 200.421 215.995 199.456 216.296 198.42C216.596 197.384 216.684 196.298 216.554 195.226C216.424 194.155 216.078 193.122 215.538 192.188C214.999 191.253 214.275 190.438 213.412 189.791C212.549 189.144 211.564 188.678 210.516 188.421C209.468 188.164 208.379 188.122 207.314 188.297C206.249 188.472 205.231 188.861 204.321 189.44C174.378 206.835 148.925 231 130.001 260C106.63 295.659 94.1737 337.364 94.1605 380C94.1605 382.122 95.0034 384.156 96.5037 385.657C98.0039 387.157 100.039 388 102.161 388C104.282 388 106.317 387.157 107.817 385.657C109.318 384.156 110.161 382.122 110.161 380C110.106 340.518 121.56 301.875 143.121 268.8C160.742 241.846 184.444 219.404 212.321 203.28ZM310.481 204.56C311.531 204.56 312.571 204.353 313.542 203.951C314.513 203.549 315.394 202.96 316.137 202.217C316.88 201.474 317.47 200.592 317.872 199.621C318.274 198.651 318.481 197.61 318.481 196.56C318.481 194.438 317.638 192.403 316.137 190.903C314.637 189.403 312.602 188.56 310.481 188.56C260.908 189.187 213.576 209.305 178.721 244.56C151.281 272.8 122.001 329.84 122.001 380C122.001 382.122 122.843 384.156 124.344 385.657C125.844 387.157 127.879 388 130.001 388C132.122 388 134.157 387.157 135.657 385.657C137.158 384.156 138.001 382.122 138.001 380C138.001 331.2 168.161 277.92 189.521 255.68C221.515 223.335 264.988 204.934 310.481 204.48V204.56Z" fill="url(#paint1_linear_37_1748)"></path><g filter="url(#filter1_d_37_1748)"><circle cx="484" cy="212" r="55" fill="white"></circle></g><path d="M463.843 204.115C463.843 203.86 463.945 203.615 464.125 203.434C464.306 203.254 464.55 203.153 464.805 203.153H492.417C492.672 203.153 492.917 203.254 493.098 203.434C493.278 203.615 493.379 203.86 493.379 204.115C493.379 204.37 493.278 204.615 493.098 204.795C492.917 204.976 492.672 205.077 492.417 205.077H464.805C464.55 205.077 464.306 204.976 464.125 204.795C463.945 204.615 463.843 204.37 463.843 204.115ZM464.805 194.251H485.939C486.194 194.251 486.439 194.15 486.619 193.969C486.8 193.789 486.901 193.544 486.901 193.289C486.901 193.034 486.8 192.789 486.619 192.609C486.439 192.428 486.194 192.327 485.939 192.327H464.805C464.55 192.327 464.306 192.428 464.125 192.609C463.945 192.789 463.843 193.034 463.843 193.289C463.843 193.544 463.945 193.789 464.125 193.969C464.306 194.15 464.55 194.251 464.805 194.251ZM464.805 199.664H492.417C492.672 199.664 492.917 199.563 493.098 199.382C493.278 199.202 493.379 198.957 493.379 198.702C493.379 198.447 493.278 198.202 493.098 198.022C492.917 197.841 492.672 197.74 492.417 197.74H464.805C464.55 197.74 464.306 197.841 464.125 198.022C463.945 198.202 463.843 198.447 463.843 198.702C463.843 198.957 463.945 199.202 464.125 199.382C464.306 199.563 464.55 199.664 464.805 199.664ZM464.805 210.49H492.417C492.672 210.49 492.917 210.389 493.098 210.208C493.278 210.028 493.379 209.783 493.379 209.528C493.379 209.273 493.278 209.028 493.098 208.847C492.917 208.667 492.672 208.566 492.417 208.566H464.805C464.55 208.566 464.306 208.667 464.125 208.847C463.945 209.028 463.843 209.273 463.843 209.528C463.843 209.783 463.945 210.028 464.125 210.208C464.306 210.389 464.55 210.49 464.805 210.49ZM510.491 225.547C510.336 225.854 510.288 226.13 510.328 226.47L510.559 228.4C510.747 229.976 509.894 231.454 508.435 232.079L507.408 232.518L510.196 238.507C510.289 238.705 510.325 238.924 510.301 239.14C510.278 239.357 510.195 239.563 510.062 239.736C509.93 239.909 509.752 240.042 509.549 240.121C509.346 240.201 509.125 240.223 508.911 240.185L506.086 239.691L504.646 242.17C504.537 242.359 504.378 242.514 504.186 242.618C503.995 242.723 503.779 242.773 503.561 242.762C503.343 242.753 503.132 242.684 502.951 242.562C502.77 242.441 502.625 242.272 502.534 242.074L499.799 236.2L499.016 235.963C498.688 235.864 498.407 235.864 498.079 235.963L497.296 236.199L494.56 242.074C494.465 242.281 494.312 242.455 494.12 242.577C493.928 242.7 493.706 242.764 493.478 242.763C493.27 242.764 493.065 242.709 492.884 242.605C492.704 242.501 492.553 242.351 492.449 242.171L491.008 239.691L488.184 240.185C487.969 240.223 487.749 240.201 487.546 240.122C487.343 240.043 487.165 239.909 487.033 239.736C486.9 239.563 486.817 239.357 486.793 239.141C486.77 238.924 486.806 238.705 486.898 238.507L487.716 236.751H460.114C459.009 236.751 458.109 235.852 458.109 234.746V185.108C458.109 184.002 459.009 183.103 460.114 183.103H492.082C492.362 183.103 492.628 183.158 492.873 183.263C492.91 183.278 492.946 183.295 492.98 183.314C493.172 183.41 493.347 183.537 493.499 183.69L499.354 189.545C499.507 189.697 499.634 189.872 499.731 190.065C499.75 190.099 499.766 190.134 499.781 190.171C499.888 190.421 499.943 190.69 499.942 190.962V210.85C500.2 210.962 500.445 211.104 500.671 211.273L502.227 212.437C502.501 212.643 502.765 212.739 503.107 212.758L505.048 212.866C506.632 212.954 507.94 214.051 508.302 215.596L508.745 217.488C508.823 217.822 508.963 218.065 509.214 218.3L510.63 219.63C511.787 220.716 512.084 222.397 511.368 223.813L510.491 225.547ZM493.476 186.388V189.568H496.656L493.476 186.388ZM488.612 234.826L489.686 232.518L488.659 232.079C487.2 231.454 486.347 229.975 486.535 228.4L486.735 226.729H464.805C464.55 226.729 464.306 226.628 464.125 226.447C463.945 226.267 463.843 226.022 463.843 225.767C463.843 225.512 463.945 225.267 464.125 225.086C464.306 224.906 464.55 224.805 464.805 224.805H486.228L485.726 223.813C485.319 223.007 485.24 222.115 485.461 221.295L464.806 221.316H464.805C464.679 221.316 464.554 221.291 464.437 221.243C464.32 221.195 464.214 221.124 464.125 221.035C463.944 220.854 463.843 220.61 463.843 220.354C463.843 220.099 463.944 219.854 464.124 219.674C464.305 219.493 464.549 219.392 464.805 219.392L486.741 219.37L487.881 218.3C488.131 218.065 488.271 217.823 488.349 217.489L488.721 215.903H464.805C464.55 215.903 464.306 215.802 464.125 215.621C463.945 215.441 463.843 215.196 463.843 214.941C463.843 214.686 463.945 214.441 464.125 214.261C464.306 214.08 464.55 213.979 464.805 213.979H489.656C490.261 213.33 491.104 212.919 492.047 212.866L493.987 212.758C494.33 212.739 494.593 212.643 494.868 212.438L496.423 211.273C496.891 210.921 497.439 210.691 498.017 210.601V191.493H493.035C492.217 191.493 491.551 190.827 491.551 190.009V185.027H460.114C460.093 185.028 460.073 185.036 460.058 185.051C460.043 185.066 460.034 185.086 460.034 185.108V234.746C460.034 234.789 460.071 234.826 460.114 234.826H488.612V234.826ZM494.954 236.67C493.867 236.6 492.854 236.032 492.227 235.072L491.288 233.637L489.235 238.048L491.338 237.68C491.531 237.646 491.731 237.673 491.909 237.756C492.088 237.839 492.236 237.974 492.335 238.145L493.408 239.99L494.954 236.67ZM507.859 238.048L505.806 233.637L504.867 235.072C504.24 236.032 503.228 236.603 502.142 236.672L503.686 239.99L504.759 238.145C504.858 237.974 505.006 237.839 505.185 237.756C505.363 237.673 505.563 237.646 505.757 237.68L507.859 238.048ZM509.313 221.033L507.896 219.703C507.371 219.21 507.035 218.629 506.871 217.927L506.428 216.035C506.26 215.318 505.676 214.828 504.941 214.787L503 214.68C502.281 214.64 501.65 214.41 501.073 213.978L499.518 212.814C498.928 212.372 498.166 212.372 497.576 212.814L496.021 213.978C495.443 214.41 494.813 214.64 494.094 214.68L492.153 214.787C491.418 214.828 490.834 215.318 490.666 216.035L490.223 217.927C490.059 218.629 489.724 219.21 489.198 219.703L487.781 221.033C487.244 221.537 487.112 222.288 487.444 222.945L488.32 224.679C488.455 224.943 488.555 225.223 488.62 225.512C488.629 225.545 488.636 225.578 488.642 225.612C488.709 225.963 488.721 226.323 488.676 226.699L488.446 228.628C488.358 229.359 488.739 230.019 489.416 230.309L491.203 231.074C491.865 231.358 492.379 231.789 492.774 232.392L493.837 234.019C494.241 234.635 494.956 234.896 495.662 234.683L497.522 234.121C497.867 234.016 498.207 233.964 498.547 233.964C498.887 233.964 499.227 234.016 499.572 234.121L501.432 234.683C502.138 234.896 502.854 234.635 503.257 234.019L504.32 232.392C504.715 231.789 505.229 231.358 505.891 231.074L507.678 230.309C508.355 230.019 508.736 229.359 508.648 228.628L508.418 226.698C508.332 225.983 508.449 225.322 508.774 224.679L509.65 222.945C509.983 222.288 509.85 221.537 509.313 221.033ZM506.674 223.619C506.674 228.101 503.028 231.746 498.547 231.746C494.066 231.746 490.421 228.101 490.421 223.619C490.421 219.138 494.066 215.493 498.547 215.493C503.028 215.493 506.674 219.138 506.674 223.619ZM504.749 223.619C504.749 220.2 501.967 217.417 498.547 217.417C495.127 217.417 492.345 220.2 492.345 223.619C492.345 227.039 495.127 229.822 498.547 229.822C501.967 229.822 504.749 227.039 504.749 223.619ZM501.199 220.786L497.205 224.412L495.929 223.136C495.748 222.957 495.504 222.857 495.249 222.858C494.995 222.859 494.752 222.96 494.572 223.14C494.392 223.319 494.291 223.563 494.29 223.817C494.289 224.071 494.389 224.315 494.568 224.496L496.492 226.421C496.581 226.51 496.687 226.581 496.804 226.629C496.921 226.678 497.046 226.702 497.173 226.702C497.412 226.703 497.642 226.614 497.819 226.453L502.493 222.211C502.586 222.126 502.662 222.024 502.716 221.91C502.77 221.795 502.801 221.672 502.807 221.545C502.813 221.419 502.794 221.293 502.752 221.174C502.709 221.055 502.643 220.946 502.559 220.852C502.387 220.663 502.147 220.55 501.893 220.538C501.638 220.525 501.388 220.615 501.199 220.786Z" fill="#1D4696"></path><g filter="url(#filter2_d_37_1748)"><circle cx="135.827" cy="549.827" r="77.8271" fill="white"></circle></g><path d="M181.166 579.181H93.1269C88.9527 579.181 85.5547 575.786 85.5547 571.609V514.427C85.5547 510.253 88.9527 506.854 93.1269 506.854H181.166C185.34 506.854 188.738 510.253 188.738 514.427V571.611C188.738 575.786 185.342 579.181 181.166 579.181ZM93.1269 509.2C90.2448 509.2 87.8998 511.545 87.8998 514.427V571.611C87.8998 574.493 90.2448 576.839 93.1269 576.839H181.166C184.048 576.839 186.393 574.493 186.393 571.611V514.427C186.393 511.545 184.048 509.2 181.166 509.2H93.1269Z" fill="#1D4696"></path><path d="M187.565 566.575H86.7272C86.08 566.575 85.5547 566.049 85.5547 565.402C85.5547 564.755 86.08 564.229 86.7272 564.229H187.565C188.213 564.229 188.738 564.755 188.738 565.402C188.738 566.049 188.213 566.575 187.565 566.575ZM124.546 595.438C123.899 595.438 123.374 594.912 123.374 594.265V578.009C123.374 577.362 123.899 576.837 124.546 576.837C125.193 576.837 125.719 577.362 125.719 578.009V594.265C125.719 594.912 125.193 595.438 124.546 595.438ZM149.746 595.438C149.099 595.438 148.574 594.912 148.574 594.265V578.009C148.574 577.362 149.099 576.837 149.746 576.837C150.394 576.837 150.919 577.362 150.919 578.009V594.265C150.919 594.912 150.394 595.438 149.746 595.438Z" fill="#1D4696"></path><path d="M160.84 595.437H113.451C112.804 595.437 112.279 594.912 112.279 594.264C112.279 593.617 112.804 593.092 113.451 593.092H160.84C161.488 593.092 162.013 593.617 162.013 594.264C162.013 594.912 161.488 595.437 160.84 595.437ZM176.627 542.652H173.645C172.997 542.652 172.472 542.126 172.472 541.479C172.472 540.832 172.997 540.307 173.645 540.307H176.627C177.275 540.307 177.8 539.781 177.8 539.134V521.405C177.8 520.758 177.275 520.233 176.627 520.233H97.6641C97.0169 520.233 96.4916 520.758 96.4916 521.405V539.134C96.4916 539.781 97.0169 540.307 97.6641 540.307H149.823C150.47 540.307 150.996 540.832 150.996 541.479C150.996 542.126 150.47 542.652 149.823 542.652H97.6641C95.7247 542.652 94.1465 541.073 94.1465 539.134V521.405C94.1465 519.466 95.7247 517.888 97.6641 517.888H176.627C178.567 517.888 180.145 519.466 180.145 521.405V539.134C180.145 541.073 178.567 542.652 176.627 542.652Z" fill="#1D4696"></path><path d="M106.288 536.817C105.641 536.817 105.115 536.292 105.115 535.645V524.897C105.115 524.25 105.641 523.725 106.288 523.725C106.935 523.725 107.46 524.25 107.46 524.897V535.645C107.46 536.292 106.935 536.817 106.288 536.817Z" fill="#1D4696"></path><path d="M102.488 535.244C102.187 535.244 101.887 535.129 101.657 534.901C101.438 534.681 101.314 534.383 101.314 534.072C101.314 533.761 101.438 533.463 101.657 533.243L109.258 525.643C109.715 525.185 110.459 525.185 110.916 525.643C111.373 526.1 111.373 526.843 110.916 527.301L103.315 534.901C103.088 535.129 102.788 535.244 102.488 535.244Z" fill="#1D4696"></path><path d="M110.088 535.244C109.788 535.244 109.488 535.129 109.258 534.901L101.657 527.301C101.2 526.844 101.2 526.1 101.657 525.643C102.115 525.186 102.858 525.186 103.315 525.643L110.916 533.243C111.135 533.463 111.259 533.761 111.259 534.072C111.259 534.383 111.135 534.681 110.916 534.901C110.696 535.12 110.398 535.244 110.088 535.244ZM122.571 536.817C121.924 536.817 121.398 536.292 121.398 535.645V524.897C121.398 524.25 121.924 523.725 122.571 523.725C123.218 523.725 123.743 524.25 123.743 524.897V535.645C123.743 536.292 123.218 536.817 122.571 536.817Z" fill="#1D4696"></path><path d="M118.773 535.244C118.473 535.244 118.172 535.129 117.943 534.901C117.723 534.681 117.6 534.383 117.6 534.072C117.6 533.761 117.723 533.463 117.943 533.243L125.543 525.643C126 525.185 126.744 525.185 127.201 525.643C127.658 526.1 127.658 526.843 127.201 527.301L119.601 534.901C119.373 535.129 119.073 535.244 118.773 535.244Z" fill="#1D4696"></path><path d="M126.371 535.244C126.071 535.244 125.771 535.129 125.541 534.901L117.941 527.301C117.483 526.844 117.483 526.1 117.941 525.643C118.398 525.186 119.141 525.186 119.599 525.643L127.199 533.243C127.419 533.463 127.542 533.761 127.542 534.072C127.542 534.383 127.419 534.681 127.199 534.901C126.972 535.129 126.671 535.244 126.371 535.244ZM138.856 536.817C138.209 536.817 137.684 536.292 137.684 535.645V524.897C137.684 524.25 138.209 523.725 138.856 523.725C139.504 523.725 140.029 524.25 140.029 524.897V535.645C140.029 536.292 139.504 536.817 138.856 536.817Z" fill="#1D4696"></path><path d="M135.056 535.244C134.756 535.244 134.456 535.129 134.226 534.901C134.006 534.681 133.883 534.383 133.883 534.072C133.883 533.761 134.006 533.463 134.226 533.243L141.826 525.643C142.284 525.185 143.027 525.185 143.484 525.643C143.941 526.1 143.941 526.843 143.484 527.301L135.884 534.901C135.656 535.129 135.356 535.244 135.056 535.244Z" fill="#1D4696"></path><path d="M142.654 535.244C142.354 535.244 142.054 535.129 141.824 534.901L134.224 527.301C133.767 526.843 133.767 526.1 134.224 525.643C134.681 525.185 135.425 525.185 135.882 525.643L143.482 533.243C143.702 533.463 143.825 533.761 143.825 534.072C143.825 534.383 143.702 534.681 143.482 534.901C143.255 535.129 142.955 535.244 142.654 535.244ZM171.792 555.54H151.678C150.011 555.54 148.653 554.182 148.653 552.515V540.135C148.653 538.468 150.011 537.11 151.678 537.11H171.792C173.459 537.11 174.817 538.468 174.817 540.135V552.515C174.817 554.182 173.459 555.54 171.792 555.54ZM151.678 539.453C151.303 539.453 150.998 539.758 150.998 540.133V552.513C150.998 552.888 151.303 553.193 151.678 553.193H171.792C172.167 553.193 172.472 552.888 172.472 552.513V540.133C172.472 539.758 172.167 539.453 171.792 539.453H151.678Z" fill="#1D4696"></path><path d="M161.735 551.535C160.208 551.535 158.965 550.292 158.965 548.766V547.546C158.294 546.833 157.912 545.879 157.922 544.892C157.943 542.826 159.641 541.13 161.707 541.116C162.741 541.116 163.702 541.512 164.424 542.232C165.149 542.952 165.548 543.909 165.548 544.929C165.548 545.923 165.173 546.852 164.504 547.553V548.766C164.507 550.292 163.264 551.535 161.735 551.535ZM161.716 543.459C160.928 543.463 160.276 544.118 160.267 544.913C160.262 545.372 160.48 545.816 160.848 546.097C161.139 546.32 161.31 546.664 161.31 547.03V548.766C161.31 548.878 161.355 548.986 161.435 549.066C161.514 549.145 161.622 549.19 161.735 549.19C161.847 549.19 161.955 549.145 162.035 549.066C162.114 548.986 162.159 548.878 162.159 548.766V547.033C162.159 546.664 162.33 546.32 162.623 546.097C162.992 545.82 163.2 545.393 163.2 544.929C163.2 544.537 163.048 544.172 162.769 543.895C162.492 543.614 162.117 543.459 161.716 543.459ZM166.617 539.453C166.306 539.453 166.008 539.33 165.788 539.11C165.568 538.89 165.445 538.592 165.445 538.281V535.448C165.445 534.946 165.346 534.461 165.154 534.006C164.966 533.565 164.699 533.166 164.359 532.826C164.016 532.484 163.62 532.216 163.179 532.029C162.267 531.642 161.205 531.642 160.292 532.029C159.852 532.216 159.453 532.484 159.113 532.826C158.773 533.166 158.503 533.565 158.318 534.006C158.126 534.461 158.027 534.946 158.027 535.448V538.281C158.027 538.592 157.903 538.89 157.683 539.11C157.464 539.33 157.166 539.453 156.855 539.453L153.37 539.451C152.723 539.451 152.197 538.926 152.197 538.278V535.448C152.197 534.161 152.451 532.911 152.948 531.733C153.428 530.596 154.116 529.576 154.99 528.701C155.865 527.826 156.885 527.139 158.022 526.659C159.2 526.159 160.45 525.908 161.737 525.908C163.024 525.908 164.274 526.161 165.452 526.659C166.589 527.139 167.609 527.826 168.484 528.701C169.359 529.576 170.046 530.596 170.526 531.733C171.026 532.911 171.277 534.161 171.277 535.448V538.278C171.277 538.926 170.751 539.451 170.104 539.451L166.617 539.453ZM161.735 529.393C162.551 529.393 163.346 529.552 164.091 529.869C164.814 530.174 165.461 530.61 166.017 531.166C166.573 531.722 167.009 532.369 167.314 533.091C167.63 533.837 167.79 534.63 167.79 535.448V537.108H168.929V535.448C168.929 534.477 168.739 533.534 168.364 532.646C168.003 531.791 167.48 531.015 166.823 530.359C166.162 529.698 165.393 529.18 164.537 528.818C163.65 528.444 162.697 528.251 161.735 528.253C160.79 528.252 159.854 528.438 158.981 528.799C158.109 529.16 157.316 529.691 156.648 530.359C155.987 531.018 155.469 531.79 155.105 532.646C154.73 533.532 154.538 534.485 154.54 535.448V537.108H155.68V535.448C155.68 534.63 155.839 533.837 156.156 533.091C156.461 532.371 156.897 531.722 157.453 531.166C158.015 530.603 158.682 530.157 159.417 529.853C160.152 529.549 160.939 529.392 161.735 529.393Z" fill="#1D4696"></path></g></g><defs><filter id="filter0_bdi_37_1748" x="-80" y="-80" width="788" height="920" filterUnits="userSpaceOnUse" color-interpolation-filters="sRGB"><feGaussianBlur stdDeviation="50"></feGaussianBlur><feGaussianBlur stdDeviation="30"></feGaussianBlur><feGaussianBlur stdDeviation="9.5"></feGaussianBlur></filter><filter id="filter1_d_37_1748" x="377" y="137" width="214" height="214" filterUnits="userSpaceOnUse" color-interpolation-filters="sRGB"><feGaussianBlur stdDeviation="32"></feGaussianBlur></filter><filter id="filter2_d_37_1748" x="6" y="452" width="259.654" height="259.654" filterUnits="userSpaceOnUse" color-interpolation-filters="sRGB"><feGaussianBlur stdDeviation="32"></feGaussianBlur></filter><linearGradient id="paint0_linear_37_1748" x1="314.002" y1="226.928" x2="314.002" y2="533.3" gradientUnits="userSpaceOnUse"><stop stop-color="#73A3FF"></stop><stop offset="1" stop-color="#C6D9FF"></stop></linearGradient><linearGradient id="paint1_linear_37_1748" x1="314.001" y1="132.039" x2="314.001" y2="627.971" gradientUnits="userSpaceOnUse"><stop stop-color="#73A3FF"></stop><stop offset="1" stop-color="#C6D9FF"></stop></linearGradient><clipPath id="clip0_37_1748"><path d="M20 24C20 21.7909 21.7909 20 24 20H604C606.209 20 608 21.7909 608 24V736C608 738.209 606.209 740 604 740H24C21.7909 740 20 738.209 20 736V24Z" fill="white"></path></clipPath></defs></svg>