<svg xmlns="http://www.w3.org/2000/svg" width="13" height="14" viewBox="0 0 13 14" fill="none"><g id="arrow-down"><path id="Union" d="M10.5627 4.63214L6.50018 8.59308L2.43768 4.63214C2.36158 4.55604 2.27275 4.51799 2.17118 4.51799C2.06962 4.51799 1.98079 4.55604 1.90468 4.63214C1.82858 4.70825 1.79053 4.79708 1.79053 4.89864C1.79053 5.0002 1.82438 5.08484 1.89209 5.15255L6.22109 9.36739C6.29719 9.4435 6.39036 9.48155 6.50059 9.48155C6.61082 9.48155 6.70399 9.4435 6.78009 9.36739L11.1091 5.16514C11.1768 5.08904 11.2107 4.99804 11.2107 4.89214C11.2107 4.78625 11.1726 4.69741 11.0965 4.62564C11.0204 4.55387 10.9316 4.51785 10.83 4.51758C10.7284 4.51731 10.6396 4.55536 10.5635 4.63174L10.5627 4.63214Z" fill="#606266"></path></g></svg>