<svg xmlns="http://www.w3.org/2000/svg" width="13" height="14" viewBox="0 0 13 14" fill="none"><g id="arrow-right"><path id="Union" d="M4.13222 2.39103C4.05612 2.4758 4.01807 2.56897 4.01807 2.67053C4.01807 2.77209 4.05612 2.86093 4.13222 2.93703L8.09316 6.99953L4.13222 11.062C4.05612 11.1381 4.01807 11.227 4.01807 11.3285C4.01807 11.4301 4.05612 11.5189 4.13222 11.595C4.20833 11.6711 4.29716 11.7092 4.39872 11.7092C4.50029 11.7092 4.58912 11.6753 4.66522 11.6076L8.86747 7.27863C8.94358 7.20252 8.98163 7.10935 8.98163 6.99913C8.98163 6.8889 8.94358 6.79573 8.86747 6.71962L4.66522 2.39062C4.58912 2.32292 4.50029 2.28906 4.39872 2.28906C4.29716 2.28906 4.20833 2.32292 4.13222 2.39062V2.39103Z" fill="#606266"></path></g></svg>