<svg xmlns="http://www.w3.org/2000/svg" width="57" height="56" viewBox="0 0 57 56" fill="none"><g id="brand-meta"><path id="Vector" d="M28.5008 23.7393C32.6215 17.2433 36.2358 14 39.3461 14C44.0128 14 46.9598 19.1637 48.6795 26.173C50.3221 32.8673 49.8461 42 44.0128 42C41.4135 42 37.8341 38.3483 34.3341 33.4787C32.1071 30.4101 30.1551 27.151 28.5008 23.7393ZM28.5008 23.7393C24.3801 17.2433 20.7661 14 17.6557 14C12.9891 14 10.0421 19.1637 8.32241 26.173C6.67975 32.8673 7.15575 42 12.9891 42C15.5884 42 19.1677 38.3483 22.6677 33.4787C25.0011 30.233 26.9445 26.985 28.5008 23.7393Z" stroke="#02A95C" stroke-width="1.25" stroke-linecap="round" stroke-linejoin="round"></path></g></svg>