<svg xmlns="http://www.w3.org/2000/svg" width="48" height="48" viewBox="0 0 48 48" fill="none"><g id="customers 1" clip-path="url(#clip0_234_22454)"><path id="Vector" d="M17.25 15.75C17.25 17.085 17.6458 18.3901 18.3876 19.5001C19.1293 20.6101 20.1835 21.4753 21.4168 21.9862C22.6503 22.4971 24.0075 22.6307 25.3168 22.3703C26.6262 22.1099 27.829 21.467 28.773 20.523C29.7169 19.579 30.3598 18.3762 30.6203 17.0669C30.8807 15.7575 30.7471 14.4003 30.2362 13.1668C29.7253 11.9335 28.8601 10.8793 27.7501 10.1376C26.6401 9.39585 25.335 9 24 9C22.2104 9.00218 20.4948 9.714 19.2294 10.9794C17.964 12.2448 17.2522 13.9604 17.25 15.75ZM29.1215 15.75C29.1215 16.7629 28.8211 17.7531 28.2584 18.5954C27.6956 19.4376 26.8958 20.0941 25.9599 20.4817C25.0241 20.8694 23.9943 20.9707 23.0009 20.7731C22.0073 20.5755 21.0948 20.0877 20.3786 19.3715C19.6623 18.6552 19.1745 17.7427 18.9769 16.7491C18.7792 15.7557 18.8806 14.7259 19.2683 13.7901C19.6559 12.8543 20.3124 12.0544 21.1546 11.4916C21.9968 10.9288 22.9871 10.6285 24 10.6285C25.3583 10.6285 26.661 11.168 27.6215 12.1286C28.582 13.089 29.1215 14.3917 29.1215 15.75Z" fill="#02A95C"></path><path id="Vector_2" d="M38.0027 23.3159C35.6173 23.315 33.3112 24.1667 31.5062 25.7152C29.3357 24.1144 26.7038 23.25 24 23.25C21.2962 23.25 18.6643 24.1144 16.4938 25.7152C15.0448 24.4762 13.2678 23.6766 11.3742 23.4115C9.4806 23.1463 7.55018 23.427 5.81263 24.2199C4.07506 25.0128 2.60349 26.2847 1.57302 27.8842C0.542545 29.4836 -0.00344309 31.3434 1.6338e-05 33.2421V35.6415C1.6338e-05 35.8594 0.0872085 36.0684 0.24241 36.2225C0.397613 36.3766 0.608113 36.4632 0.827603 36.4632H11.3462V38.9283C11.3462 39.1462 11.4334 39.3552 11.5886 39.5093C11.7438 39.6635 11.9543 39.75 12.1738 39.75H35.8262C36.0457 39.75 36.2562 39.6635 36.4114 39.5093C36.5666 39.3552 36.6538 39.1462 36.6538 38.9283V36.4632H47.1724C47.3919 36.4632 47.6024 36.3766 47.7576 36.2225C47.9128 36.0684 48 35.8594 48 35.6415V33.2421C47.9978 30.6102 46.9439 28.0867 45.0695 26.2256C43.1951 24.3646 40.6535 23.3181 38.0027 23.3159ZM1.65519 33.2421C1.65499 31.6815 2.09881 30.1526 2.93554 28.8316C3.77227 27.5105 4.96785 26.4511 6.38455 25.7753C7.80127 25.0994 9.38145 24.8347 10.943 25.0117C12.5046 25.1886 13.9841 25.7999 15.2111 26.7753L15.0455 26.956L14.7228 27.2929C14.5407 27.4901 14.3586 27.6956 14.1848 27.9011L13.8952 28.2708C13.7214 28.4927 13.5641 28.7227 13.4152 28.9528C13.2662 29.1829 13.2497 29.1911 13.1752 29.3144C13.0097 29.5937 12.8441 29.8895 12.6952 30.1853C12.6952 30.2593 12.6124 30.3332 12.5793 30.4072C12.3973 30.7852 12.24 31.1714 12.0911 31.5658C12.0911 31.6644 12.0331 31.763 12 31.8617C11.9007 32.1575 11.8097 32.4615 11.7352 32.7655C11.6938 32.9052 11.669 33.0531 11.6359 33.1928C11.578 33.4639 11.5283 33.7351 11.4952 34.0145C11.4621 34.2939 11.4538 34.3267 11.4373 34.4829C11.4207 34.639 11.3959 34.7129 11.3876 34.828H1.65519V33.2421ZM13.0014 38.0819V35.7647C13.0055 35.7265 13.0055 35.6879 13.0014 35.6497C13.0367 33.5945 13.656 31.591 14.7878 29.8699C15.9197 28.1488 17.5181 26.7801 19.3991 25.9214C21.2801 25.0628 23.367 24.749 25.4197 25.0164C27.4723 25.2838 29.4071 26.1213 31.0014 27.4327C31.2662 27.6627 31.5228 27.8928 31.7628 28.1311C33.7933 30.134 34.9495 32.8491 34.9821 35.6908C34.9821 35.6908 34.9821 35.7647 34.9821 35.7811V38.0819H13.0014ZM46.3448 34.7951H36.6124C36.6124 34.7129 36.6124 34.639 36.6124 34.5569C36.6124 34.4747 36.571 34.2199 36.5545 34.0474C36.5379 33.8748 36.4552 33.6447 36.4138 33.3982C36.3725 33.1517 36.3476 33.0613 36.3062 32.8969C36.2648 32.7326 36.1986 32.4779 36.1407 32.2643L35.9917 31.7795C35.9173 31.574 35.8427 31.3769 35.76 31.1714C35.6773 30.966 35.6359 30.8591 35.5696 30.7112C35.5034 30.5633 35.3793 30.3086 35.28 30.1114C35.1807 29.9142 35.1393 29.8156 35.0566 29.6759C34.9738 29.5362 34.8166 29.2815 34.6925 29.0842C34.5682 28.8871 34.5352 28.8213 34.4441 28.6981C34.3531 28.5748 34.1379 28.279 33.9725 28.0736C33.8069 27.8681 33.8234 27.8681 33.7407 27.7696C33.4925 27.4737 33.2276 27.1779 32.9131 26.8985L32.789 26.8246C34.0126 25.8518 35.4875 25.241 37.0447 25.0622C38.6019 24.8835 40.1782 25.144 41.5932 25.8138C43.0081 26.4836 44.2043 27.5358 45.0448 28.8496C45.8852 30.1634 46.3358 31.6857 46.3448 33.2421V34.7951Z" fill="#02A95C"></path><path id="Vector_3" d="M37.8835 12.75C36.7702 12.7486 35.6815 13.0334 34.7552 13.5686C33.8289 14.1037 33.1066 14.8649 32.6798 15.7561C32.253 16.6472 32.1409 17.6279 32.3577 18.5743C32.5745 19.5206 33.1103 20.39 33.8975 21.0722C34.6847 21.7544 35.6878 22.2188 36.7797 22.4067C37.8716 22.5946 39.0033 22.4974 40.0315 22.1275C41.0597 21.7577 41.9381 21.1316 42.5555 20.3288C43.173 19.526 43.5017 18.5825 43.5 17.6177C43.5 16.3267 42.9083 15.0886 41.855 14.1758C40.8017 13.2629 39.3731 12.75 37.8835 12.75ZM37.8835 21.0287C37.1047 21.0302 36.3429 20.8313 35.6945 20.4575C35.0462 20.0835 34.5404 19.5513 34.2412 18.9281C33.942 18.305 33.8629 17.6189 34.0138 16.9568C34.1647 16.2946 34.5389 15.6861 35.089 15.2084C35.6391 14.7305 36.3404 14.405 37.1041 14.2727C37.8677 14.1405 38.6596 14.2076 39.3792 14.4656C40.0989 14.7236 40.7141 15.1607 41.1469 15.7219C41.5798 16.283 41.8108 16.9427 41.8108 17.6177C41.8108 18.5211 41.3973 19.3876 40.661 20.0271C39.9248 20.6666 38.9258 21.0268 37.8835 21.0287Z" fill="#02A95C"></path><path id="Vector_4" d="M4.5 17.625C4.5 18.5892 4.8299 19.5317 5.44798 20.3334C6.06607 21.1351 6.94457 21.7599 7.97242 22.1289C9.00023 22.4979 10.1312 22.5944 11.2224 22.4063C12.3135 22.2182 13.3158 21.7539 14.1025 21.0722C14.8892 20.3904 15.4249 19.5218 15.6419 18.5761C15.859 17.6304 15.7475 16.6502 15.3218 15.7594C14.8961 14.8686 14.1751 14.1073 13.2501 13.5715C12.325 13.0359 11.2375 12.75 10.125 12.75C8.63385 12.7519 7.2044 13.2662 6.14999 14.18C5.09559 15.0938 4.50224 16.3327 4.5 17.625ZM14.0583 17.625C14.0583 18.2992 13.8276 18.9583 13.3954 19.5188C12.9632 20.0795 12.3489 20.5163 11.6302 20.7743C10.9114 21.0323 10.1207 21.0999 9.35768 20.9683C8.5947 20.8368 7.89383 20.5121 7.34376 20.0354C6.79368 19.5586 6.41907 18.9513 6.26731 18.29C6.11554 17.6287 6.19343 16.9434 6.49113 16.3205C6.78883 15.6976 7.29297 15.1652 7.9398 14.7907C8.5866 14.4161 9.3471 14.2162 10.125 14.2162C11.1675 14.2181 12.1666 14.5779 12.9037 15.2167C13.6409 15.8556 14.0561 16.7215 14.0583 17.625Z" fill="#02A95C"></path></g><defs><clipPath id="clip0_234_22454"><rect width="48" height="48" fill="white"></rect></clipPath></defs></svg>