<svg xmlns="http://www.w3.org/2000/svg" width="48" height="48" viewBox="0 0 48 48" fill="none"><g id="employees 1" clip-path="url(#clip0_234_22441)"><g id="Clip path group"><mask id="mask0_234_22441" style="mask-type:luminance" maskUnits="userSpaceOnUse" x="0" y="0" width="48" height="48"><g id="clip0_3334_290"><path id="Vector" d="M48 0H0V48H48V0Z" fill="white"></path></g></mask><g mask="url(#mask0_234_22441)"><g id="Group"><path id="Vector_2" d="M44.8525 42.23H3.14754C2.31276 42.23 1.51217 41.8984 0.921893 41.3081C0.331615 40.7178 0 39.9172 0 39.0824V12.7217C0 11.887 0.331615 11.0864 0.921893 10.4961C1.51217 9.90587 2.31276 9.57422 3.14754 9.57422H44.8525C45.6872 9.57422 46.4879 9.90587 47.0781 10.4961C47.6684 11.0864 48 11.887 48 12.7217V39.0824C48 39.9172 47.6684 40.7178 47.0781 41.3081C46.4879 41.8984 45.6872 42.23 44.8525 42.23ZM3.14754 11.148C2.73015 11.148 2.32985 11.3138 2.03472 11.609C1.73958 11.9041 1.57377 12.3044 1.57377 12.7217V39.0824C1.57377 39.4998 1.73958 39.9001 2.03472 40.1953C2.32985 40.4904 2.73015 40.6562 3.14754 40.6562H44.8525C45.2698 40.6562 45.6701 40.4904 45.9652 40.1953C46.2604 39.9001 46.4262 39.4998 46.4262 39.0824V12.7217C46.4262 12.3044 46.2604 11.9041 45.9652 11.609C45.6701 11.3138 45.2698 11.148 44.8525 11.148H3.14754Z" fill="#02A95C"></path><path id="Vector_3" d="M19.2787 26.495H3.14754C2.31276 26.495 1.51217 26.1634 0.921892 25.5731C0.331615 24.9828 0 24.1823 0 23.3474C0 23.1388 0.0829035 22.9386 0.230473 22.791C0.378043 22.6435 0.57819 22.5605 0.786885 22.5605C0.99558 22.5605 1.19572 22.6435 1.34329 22.791C1.49086 22.9386 1.57377 23.1388 1.57377 23.3474C1.57377 23.7648 1.73958 24.1652 2.03472 24.4603C2.32986 24.7554 2.73015 24.9212 3.14754 24.9212H19.2787C19.4874 24.9212 19.6875 25.0041 19.8351 25.1517C19.9827 25.2992 20.0656 25.4994 20.0656 25.7081C20.0656 25.9168 19.9827 26.117 19.8351 26.2645C19.6875 26.4121 19.4874 26.495 19.2787 26.495Z" fill="#02A95C"></path><path id="Vector_4" d="M44.8526 26.495H28.7215C28.5127 26.495 28.3126 26.4121 28.165 26.2645C28.0174 26.117 27.9346 25.9168 27.9346 25.7081C27.9346 25.4994 28.0174 25.2992 28.165 25.1517C28.3126 25.0041 28.5127 24.9212 28.7215 24.9212H44.8526C45.27 24.9212 45.6703 24.7554 45.9654 24.4603C46.2606 24.1652 46.4263 23.7648 46.4263 23.3474C46.4263 23.1388 46.5093 22.9386 46.6568 22.791C46.8044 22.6435 47.0046 22.5605 47.2132 22.5605C47.422 22.5605 47.6221 22.6435 47.7697 22.791C47.9173 22.9386 48.0001 23.1388 48.0001 23.3474C48.0001 24.1823 47.6685 24.9828 47.0782 25.5731C46.488 26.1634 45.6874 26.495 44.8526 26.495Z" fill="#02A95C"></path><path id="Vector_5" d="M26.7544 28.4632H21.2463C20.5158 28.4632 19.8153 28.1731 19.2988 27.6566C18.7823 27.1401 18.4922 26.4396 18.4922 25.7092C18.4922 24.9787 18.7823 24.2782 19.2988 23.7617C19.8153 23.2453 20.5158 22.9551 21.2463 22.9551H26.7544C27.4849 22.9551 28.1854 23.2453 28.7019 23.7617C29.2184 24.2782 29.5086 24.9787 29.5086 25.7092C29.5086 26.4396 29.2184 27.1401 28.7019 27.6566C28.1854 28.1731 27.4849 28.4632 26.7544 28.4632ZM21.2463 24.5288C20.9332 24.5288 20.633 24.6532 20.4117 24.8746C20.1903 25.0959 20.0659 25.3961 20.0659 25.7092C20.0659 26.0222 20.1903 26.3224 20.4117 26.5438C20.633 26.7652 20.9332 26.8895 21.2463 26.8895H26.7544C27.0675 26.8895 27.3677 26.7652 27.5891 26.5438C27.8104 26.3224 27.9348 26.0222 27.9348 25.7092C27.9348 25.3961 27.8104 25.0959 27.5891 24.8746C27.3677 24.6532 27.0675 24.5288 26.7544 24.5288H21.2463Z" fill="#02A95C"></path><path id="Vector_6" d="M32.2654 11.1517C32.0568 11.1517 31.8566 11.0687 31.709 10.9212C31.5615 10.7736 31.4785 10.5734 31.4785 10.3648V8.07098C31.4785 7.74023 31.3471 7.42297 31.1133 7.18907C30.8793 6.95517 30.5621 6.82377 30.2313 6.82377H17.3815C17.0507 6.82377 16.7335 6.95517 16.4996 7.18907C16.2657 7.42297 16.1343 7.74023 16.1343 8.07098V10.3648C16.1343 10.5734 16.0514 10.7736 15.9038 10.9212C15.7563 11.0687 15.5561 11.1517 15.3474 11.1517C15.1387 11.1517 14.9385 11.0687 14.791 10.9212C14.6434 10.7736 14.5605 10.5734 14.5605 10.3648V8.07098C14.5616 7.32314 14.8591 6.60621 15.3879 6.0774C15.9167 5.54858 16.6336 5.25104 17.3815 5.25H30.2313C30.9792 5.25104 31.6961 5.54858 32.2249 6.0774C32.7537 6.60621 33.0513 7.32314 33.0523 8.07098V10.3648C33.0523 10.5734 32.9694 10.7736 32.8218 10.9212C32.6742 11.0687 32.4741 11.1517 32.2654 11.1517Z" fill="#02A95C"></path></g></g></g></g><defs><clipPath id="clip0_234_22441"><rect width="48" height="48" fill="white"></rect></clipPath></defs></svg>