<svg xmlns="http://www.w3.org/2000/svg" width="48" height="48" viewBox="0 0 48 48" fill="none"><g id="Founded 1"><path id="Vector" d="M41.6706 3.00422C38.1461 3.21622 31.8013 3.83917 28.9035 5.63458C25.1797 7.94183 21.5051 12.2732 18.5405 16.4312L12.6271 17.2285C11.4861 17.3824 10.4929 18.1546 10.0353 19.2433L8.64866 22.5436C8.53864 22.8049 8.55124 23.1033 8.68204 23.3534C8.81276 23.604 9.04759 23.7793 9.31901 23.8285L13.3493 24.563C13.05 25.0856 12.7944 25.5416 12.5933 25.907C12.055 26.8852 12.2187 28.1241 12.9914 28.921L13.2163 29.1529L12.2606 30.1385C11.2981 31.1315 11.2981 32.7475 12.2606 33.7409L14.4403 35.9891C14.9069 36.4703 15.5272 36.7348 16.1872 36.7348C16.8468 36.7348 17.4671 36.4698 17.9337 35.9887L18.8889 35.0035L19.1139 35.2355C19.5751 35.7111 20.1873 35.9728 20.8374 35.9728C21.2567 35.9728 21.671 35.8599 22.0366 35.6461C22.3909 35.4387 22.8327 35.1756 23.3394 34.8664L24.0517 39.0226C24.0996 39.3028 24.2695 39.5451 24.5124 39.6794C24.6455 39.7534 24.7924 39.7906 24.9394 39.7906C25.0611 39.7906 25.1833 39.765 25.2978 39.7138L28.4982 38.2843C29.5539 37.8124 30.3028 36.7882 30.452 35.6116L31.2252 29.5137C35.2572 26.4561 39.4571 22.6672 41.6949 18.8272C43.436 15.8389 44.0406 9.29603 44.2457 5.66154C44.2849 4.96235 44.0505 4.29755 43.5857 3.78896C43.0956 3.25154 42.3978 2.96099 41.6706 3.00422ZM10.7571 22.2023L11.6898 19.9825C11.8963 19.4906 12.3449 19.1419 12.8607 19.0722L17.11 18.4995C16.0502 20.0801 15.1179 21.5747 14.3497 22.8574L10.7571 22.2023ZM16.6597 34.673C16.4076 34.9329 15.9681 34.9329 15.7166 34.673L13.5369 32.4253C13.2768 32.1571 13.2768 31.7205 13.5369 31.4527L14.4926 30.4676L17.6154 33.6879L16.6597 34.673ZM28.6654 35.3704C28.5978 35.9022 28.2597 36.3648 27.7827 36.5776L25.6301 37.5395L24.9948 33.8348C26.2382 33.0431 27.688 32.0812 29.2208 30.9883L28.6654 35.3704ZM40.1505 17.8691C36.0214 24.9559 24.5616 32.0292 21.1476 34.0287C20.905 34.17 20.5877 34.1235 20.3902 33.9204L19.5287 33.0319L19.5278 33.0306L15.1296 28.4951L15.1282 28.4941L14.2668 27.6058C14.0661 27.3984 14.0224 27.0772 14.1617 26.8247C16.1002 23.3041 22.9599 11.4866 29.8321 7.22868C32.4947 5.57925 39.0712 5.02325 41.8144 4.8596C41.9902 4.8596 42.1539 4.93259 42.2751 5.06462C42.396 5.19665 42.4569 5.37005 42.4464 5.55275C42.2891 8.34165 41.7499 15.1234 40.1505 17.8691Z" fill="#02A95C"></path><path id="Vector_2" d="M33.1023 9.68945C31.9103 9.68945 30.79 10.2115 29.947 11.1589C28.2078 13.115 28.2078 16.2982 29.947 18.2538C30.7896 19.2013 31.9099 19.7233 33.1019 19.7233C34.2935 19.7233 35.4142 19.2017 36.2568 18.2538C37.9964 16.2977 37.9964 13.115 36.2568 11.1585C35.4146 10.211 34.2943 9.68945 33.1023 9.68945ZM35.0358 16.88C34.5193 17.4608 33.8326 17.7803 33.1023 17.7803C32.372 17.7803 31.6853 17.4608 31.1688 16.88C30.1029 15.681 30.1029 13.7308 31.1688 12.5318C31.6853 11.951 32.372 11.6314 33.1023 11.6314C33.8326 11.6314 34.5193 11.951 35.0358 12.5318C36.1022 13.7308 36.1022 15.6815 35.0358 16.88Z" fill="#02A95C"></path><path id="Vector_3" d="M8.75183 34.2168C7.31014 34.2168 5.95482 34.7222 4.93566 35.6395C3.01491 37.368 2.98758 42.393 3.00173 43.3828C3.00856 43.8589 3.43594 44.2435 3.96528 44.2501L4.1014 44.2505C6.06558 44.2505 10.8224 44.081 12.568 42.5098C13.5871 41.5924 14.1487 40.3726 14.1487 39.0749C14.1487 37.7773 13.5871 36.5573 12.568 35.64C11.5488 34.7227 10.1935 34.2168 8.75183 34.2168ZM11.1882 41.2675C10.3476 42.0241 7.52678 42.4105 4.96347 42.4817C5.03616 40.3708 5.4528 37.6574 6.31536 36.8814C6.96619 36.2956 7.8312 35.9733 8.75183 35.9733C9.67245 35.9733 10.5374 36.2956 11.1882 36.8814C11.8391 37.4672 12.1972 38.2458 12.1972 39.0745C12.1972 39.9031 11.8391 40.6817 11.1882 41.2675Z" fill="#02A95C"></path></g></svg>