<svg xmlns="http://www.w3.org/2000/svg" width="57" height="56" viewBox="0 0 57 56" fill="none"><g id="phone-call"><path id="Vector" d="M35.5 16.3333C36.7377 16.3333 37.9247 16.825 38.7998 17.7002C39.675 18.5753 40.1667 19.7623 40.1667 21M35.5 7C39.213 7 42.774 8.475 45.3995 11.1005C48.025 13.726 49.5 17.287 49.5 21M12.1667 9.33333H21.5L26.1667 21L20.3333 24.5C22.8322 29.5669 26.9331 33.6678 32 36.1667L35.5 30.3333L47.1667 35V44.3333C47.1667 45.571 46.675 46.758 45.7998 47.6332C44.9247 48.5083 43.7377 49 42.5 49C33.3983 48.4469 24.8137 44.5818 18.3659 38.1341C11.9182 31.6863 8.05312 23.1017 7.5 14C7.5 12.7623 7.99167 11.5753 8.86683 10.7002C9.742 9.825 10.929 9.33333 12.1667 9.33333Z" stroke="#02A95C" stroke-width="1.25" stroke-linecap="round" stroke-linejoin="round"></path></g></svg>