<svg xmlns="http://www.w3.org/2000/svg" width="40" height="40" viewBox="0 0 40 40" fill="none"><g id="Secondary-market 1"><g id="Group 6"><path id="Vector" d="M20.5244 9.41184V5.51879C21.4541 5.51879 22.1651 6.353 22.1651 7.46532H23.2589C23.2589 5.79684 22.0557 4.40649 20.5244 4.40649V3.57227H19.4307V4.40649C17.8994 4.57333 16.6963 5.85248 16.6963 7.46532C16.6963 9.07816 17.8994 10.3573 19.4307 10.5242V14.4172C18.501 14.4172 17.79 13.5829 17.79 13.0268H16.6963C16.6963 14.1391 17.8994 15.5295 19.4307 15.5295V16.9198H20.5244V15.5295C22.0557 15.3626 23.2589 14.0835 23.2589 12.4707C23.2589 10.8578 22.0557 9.57869 20.5244 9.41184ZM17.79 7.46532C17.79 6.46421 18.501 5.68563 19.4307 5.57437V9.41184C18.501 9.245 17.79 8.46637 17.79 7.46532ZM20.5244 14.3616V10.5242C21.4541 10.6354 22.1651 11.4696 22.1651 12.4151C22.1651 13.3605 21.4541 14.2504 20.5244 14.3616Z" fill="#02A95C"></path><path id="Vector_2" d="M20.5244 28.8766V24.9836C21.4541 24.9836 22.1651 25.8178 22.1651 26.9302H23.2589C23.2589 25.2617 22.0557 23.8713 20.5244 23.8713V23.0371H19.4307V23.8713C17.8994 24.0382 16.6963 25.3173 16.6963 26.9302C16.6963 28.543 17.8994 29.8221 19.4307 29.989V33.8821C18.501 33.8821 17.79 33.0477 17.79 32.4917H16.6963C16.6963 33.604 17.8994 34.9943 19.4307 34.9943V36.3846H20.5244V34.9943C22.0557 34.8274 23.2589 33.5483 23.2589 31.9355C23.2589 30.3226 22.0557 29.0435 20.5244 28.8766ZM17.79 26.9302C17.79 25.9291 18.501 25.1505 19.4307 25.0393V28.8766C18.501 28.7098 17.79 27.9312 17.79 26.9302ZM20.5244 33.8264V29.989C21.4541 30.1002 22.1651 30.9344 22.1651 31.8799C22.1651 32.8252 21.4541 33.7152 20.5244 33.8264Z" fill="#02A95C"></path><path id="Vector_3" d="M7.39945 19.4216V15.5286C8.32918 15.5286 9.04008 16.3628 9.04008 17.4751H10.1339C10.1339 15.8067 8.93071 14.4162 7.39945 14.4162V13.582H6.30571V14.4162C4.77442 14.5831 3.57129 15.8622 3.57129 17.4751C3.57129 19.0879 4.77442 20.3671 6.30571 20.5339V24.427C5.37603 24.427 4.66504 23.5927 4.66504 23.0366H3.57129C3.57129 24.1489 4.77442 25.5392 6.30571 25.5392V26.9297H7.39945V25.5392C8.93071 25.3724 10.1339 24.0932 10.1339 22.4805C10.1339 20.8676 8.93071 19.5885 7.39945 19.4216ZM4.66504 17.4751C4.66504 16.474 5.37603 15.6954 6.30571 15.5842V19.4216C5.37603 19.2548 4.66504 18.4762 4.66504 17.4751ZM7.39945 24.3713V20.5339C8.32918 20.6451 9.04008 21.4793 9.04008 22.4248C9.04008 23.3703 8.32918 24.2601 7.39945 24.3713Z" fill="#02A95C"></path><path id="Vector_4" d="M33.6493 19.4216V15.5286C34.5793 15.5286 35.2902 16.3628 35.2902 17.4751H36.384C36.384 15.8067 35.1809 14.4162 33.6493 14.4162V13.582H32.5556V14.4162C31.0244 14.5831 29.8213 15.8622 29.8213 17.4751C29.8213 19.0879 31.0244 20.3671 32.5556 20.5339V24.427C31.6259 24.427 30.9151 23.5927 30.9151 23.0366H29.8213C29.8213 24.1489 31.0244 25.5392 32.5556 25.5392V26.9297H33.6493V25.5392C35.1809 25.3724 36.384 24.0932 36.384 22.4805C36.384 20.8676 35.1809 19.5885 33.6493 19.4216ZM30.9151 17.4751C30.9151 16.474 31.6259 15.6954 32.5556 15.5842V19.4216C31.6259 19.2548 30.9151 18.4762 30.9151 17.4751ZM33.6493 24.3713V20.5339C34.5793 20.6451 35.2902 21.4793 35.2902 22.4248C35.2902 23.3703 34.5793 24.2601 33.6493 24.3713Z" fill="#02A95C"></path><path id="Vector_5" d="M13.7462 7.24348C11.2852 8.467 9.26169 10.3579 7.83984 12.6937L8.76953 13.2499C10.0821 11.0809 11.9414 9.35684 14.1289 8.24453L14.4024 9.02316L16.1524 6.90979L13.4727 6.46484L13.7462 7.24348Z" fill="#02A95C"></path><path id="Vector_6" d="M30.0919 11.8049L29.4356 12.2498L31.8967 13.4733L31.678 10.6926L31.0216 11.1375C29.3262 8.96854 27.0293 7.41133 24.459 6.52148L24.1309 7.57817C26.4824 8.41238 28.5606 9.85838 30.0919 11.8049Z" fill="#02A95C"></path><path id="Vector_7" d="M32.2304 27.5405L31.3008 26.9844C30.043 29.1533 28.2383 30.933 25.9961 32.1011L25.668 31.3223L24.0273 33.4914L26.7071 33.8807L26.3789 33.102C28.8399 31.8785 30.8633 29.932 32.2304 27.5405Z" fill="#02A95C"></path><path id="Vector_8" d="M9.86235 28.7114L10.5186 28.2665L8.05762 27.043L8.27641 29.8237L8.93262 29.3788C10.628 31.5478 12.9249 33.105 15.4952 33.995L15.8234 32.9381C13.4718 32.104 11.3936 30.6579 9.86235 28.7114Z" fill="#02A95C"></path></g></g></svg>