<svg xmlns="http://www.w3.org/2000/svg" width="40" height="40" viewBox="0 0 40 40" fill="none"><g id="Trusted-platform 1"><g id="Group 4"><path id="Vector" d="M32.0363 8.01782C27.7065 8.16998 23.4866 6.63577 20.2655 3.73833C20.2626 3.73536 20.2586 3.73449 20.2557 3.73158C20.2528 3.72867 20.2518 3.72461 20.2489 3.72177C20.2235 3.70227 20.1963 3.68514 20.1678 3.67061C20.1387 3.64792 20.1075 3.6282 20.0745 3.61177C20.0423 3.60152 20.0092 3.59436 19.9757 3.59042C19.9095 3.56658 19.8371 3.5662 19.7706 3.58939C19.7347 3.59342 19.6992 3.60114 19.6648 3.61242C19.6315 3.62914 19.6 3.6492 19.5707 3.67227C19.5429 3.68651 19.5166 3.70327 19.4919 3.7223C19.4891 3.72496 19.4883 3.72867 19.4856 3.73139C19.4824 3.73458 19.4779 3.73558 19.4748 3.73886C16.2579 6.64303 12.0353 8.17813 7.70447 8.01782C7.63126 8.01456 7.55821 8.02671 7.49 8.0534C7.42174 8.08013 7.35984 8.12082 7.30831 8.17287C7.25589 8.22387 7.21426 8.28492 7.18579 8.35229C7.15737 8.41971 7.14268 8.49208 7.14258 8.56524V21.5357C7.14353 22.6131 7.36895 23.6784 7.80453 24.6637C8.24005 25.6491 8.87621 26.5329 9.67237 27.2587L19.502 36.2048C19.5337 36.2295 19.5682 36.2507 19.6046 36.2679C19.6818 36.3241 19.7749 36.3545 19.8704 36.3545C19.9659 36.3545 20.059 36.3241 20.1362 36.2679C20.1727 36.2507 20.2071 36.2295 20.2387 36.2048L30.0685 27.2587C30.8646 26.5329 31.5007 25.6491 31.9363 24.6637C32.3719 23.6784 32.5973 22.6131 32.5982 21.5357V8.56524C32.5982 8.49208 32.5835 8.41966 32.555 8.35229C32.5266 8.28487 32.4847 8.22387 32.4326 8.17282C32.3804 8.1214 32.3185 8.08108 32.2504 8.0544C32.1823 8.02777 32.1095 8.01529 32.0363 8.01782ZM31.5032 21.5357C31.5026 22.4607 31.3088 23.3752 30.935 24.2212C30.5612 25.0671 30.0152 25.826 29.3318 26.4492L19.8704 35.0601L10.4091 26.4492C9.72568 25.826 9.17968 25.0671 8.80584 24.2212C8.43195 23.3752 8.23837 22.4607 8.23747 21.5357V9.11908C12.5009 9.15361 16.6328 7.64429 19.8702 4.86992C23.1074 7.64487 27.2397 9.15424 31.5032 9.11908V21.5357Z" fill="#02A95C"></path><path id="Vector_2" d="M12.8584 19.9612C12.8584 21.3484 13.2698 22.7045 14.0405 23.858C14.8112 25.0114 15.9066 25.9104 17.1882 26.4413C18.4699 26.9722 19.8801 27.111 21.2408 26.8404C22.6013 26.5698 23.8511 25.9017 24.832 24.9208C25.8129 23.9399 26.4809 22.6902 26.7516 21.3295C27.0222 19.969 26.8833 18.5587 26.3525 17.2771C25.8216 15.9954 24.9226 14.9 23.7691 14.1293C22.6157 13.3586 21.2596 12.9473 19.8724 12.9473C18.0128 12.9494 16.2301 13.6891 14.9151 15.004C13.6002 16.3188 12.8606 18.1016 12.8584 19.9612ZM19.8724 14.0421C21.0431 14.0421 22.1875 14.3892 23.1609 15.0396C24.1342 15.6901 24.8929 16.6145 25.3409 17.6961C25.7889 18.7776 25.9061 19.9678 25.6778 21.116C25.4494 22.2642 24.8856 23.3188 24.0578 24.1466C23.23 24.9744 22.1753 25.5382 21.0271 25.7666C19.8789 25.995 18.6888 25.8777 17.6072 25.4297C16.5257 24.9817 15.6012 24.2231 14.9508 23.2497C14.3004 22.2763 13.9533 21.1319 13.9533 19.9612C13.9551 18.3919 14.5792 16.8874 15.6889 15.7777C16.7986 14.6681 18.3031 14.0439 19.8724 14.0421Z" fill="#02A95C"></path><path id="Vector_3" d="M18.5025 21.7936C18.6052 21.8962 18.7444 21.9539 18.8896 21.954C18.8955 21.954 18.9019 21.954 18.9078 21.9535C18.9827 21.951 19.0564 21.9332 19.1242 21.9011C19.1919 21.869 19.2524 21.8233 19.3018 21.7669L23.1113 17.4104C23.1588 17.3563 23.1951 17.2934 23.2182 17.2252C23.2413 17.1571 23.2508 17.085 23.246 17.0132C23.2412 16.9414 23.2224 16.8712 23.1905 16.8067C23.1585 16.7422 23.1142 16.6846 23.0601 16.6372C23.0059 16.5899 22.9429 16.5537 22.8747 16.5307C22.8065 16.5077 22.7344 16.4984 22.6627 16.5032C22.5909 16.5081 22.5207 16.5271 22.4562 16.5591C22.3918 16.5911 22.3343 16.6355 22.287 16.6898L18.8629 20.6057L17.429 19.1719C17.3262 19.0704 17.1873 19.0136 17.0427 19.014C16.8981 19.0145 16.7597 19.0721 16.6574 19.1744C16.5552 19.2766 16.4975 19.4151 16.4971 19.5597C16.4967 19.7042 16.5534 19.8431 16.655 19.946L18.5025 21.7936Z" fill="#02A95C"></path></g></g></svg>