<svg width="32" height="32" viewBox="0 0 32 32" fill="none" xmlns="http://www.w3.org/2000/svg">
<g id="air-balloon">
<path id="Vector" d="M16 21.3327C20.4187 21.3327 24 15.0847 24 10.666C24 8.54428 23.1571 6.50945 21.6569 5.00916C20.1566 3.50887 18.1217 2.66602 16 2.66602M16 21.3327C11.5813 21.3327 8 15.0847 8 10.666C8 8.54428 8.84286 6.50945 10.3431 5.00916C11.8434 3.50887 13.8783 2.66602 16 2.66602M16 21.3327C15.2928 21.3327 14.6145 20.3494 14.1144 18.599C13.6143 16.8487 13.3333 14.4747 13.3333 11.9993C13.3333 9.524 13.6143 7.15003 14.1144 5.39969C14.6145 3.64935 15.2928 2.66602 16 2.66602M16 21.3327C16.7072 21.3327 17.3855 20.3494 17.8856 18.599C18.3857 16.8487 18.6667 14.4747 18.6667 11.9993C18.6667 9.524 18.3857 7.15003 17.8856 5.39969C17.3855 3.64935 16.7072 2.66602 16 2.66602M13.3333 26.666C13.3333 26.3124 13.4738 25.9733 13.7239 25.7232C13.9739 25.4732 14.313 25.3327 14.6667 25.3327H17.3333C17.687 25.3327 18.0261 25.4732 18.2761 25.7232C18.5262 25.9733 18.6667 26.3124 18.6667 26.666V27.9993C18.6667 28.353 18.5262 28.6921 18.2761 28.9422C18.0261 29.1922 17.687 29.3327 17.3333 29.3327H14.6667C14.313 29.3327 13.9739 29.1922 13.7239 28.9422C13.4738 28.6921 13.3333 28.353 13.3333 27.9993V26.666Z" stroke="currentColor" stroke-width="1.25" stroke-linecap="round" stroke-linejoin="round"/>
</g>
</svg>
