<svg width="48" height="48" viewBox="0 0 48 48" fill="none" xmlns="http://www.w3.org/2000/svg">
<g id="billion-assets 1">
<path id="Vector" d="M25.875 27C23.4274 27 21.0349 26.2962 18.9998 24.9776C16.9648 23.6591 15.3786 21.785 14.442 19.5922C13.5053 17.3995 13.2603 14.9867 13.7378 12.6589C14.2153 10.3312 15.3939 8.19293 17.1245 6.51473C18.8552 4.8365 21.0602 3.69361 23.4607 3.23058C25.8613 2.76756 28.3495 3.0052 30.6107 3.91345C32.872 4.82171 34.8046 6.35978 36.1644 8.33318C37.5242 10.3066 38.25 12.6266 38.25 15C38.2472 18.1818 36.9425 21.2324 34.6224 23.4823C32.3022 25.7321 29.1562 26.9973 25.875 27ZM25.875 4.73611C23.7803 4.73611 21.7327 5.33851 19.991 6.4671C18.2494 7.5957 16.8921 9.1998 16.0907 11.0765C15.2893 12.9532 15.0799 15.0182 15.489 17.0104C15.898 19.0025 16.9071 20.8322 18.3886 22.2682C19.8702 23.7041 21.7576 24.6818 23.8123 25.0774C25.8668 25.473 27.9962 25.2689 29.9312 24.4909C31.8661 23.7129 33.5197 22.3959 34.6827 20.7065C35.8457 19.0172 36.4659 17.0312 36.4649 15C36.4607 12.2782 35.3435 9.66915 33.3583 7.74503C31.373 5.82088 28.6819 4.7388 25.875 4.73611Z" fill="currentColor"/>
<path id="Vector_2" d="M45.7025 30.3915C45.1975 29.8112 44.4977 29.4163 43.7225 29.2739C42.9473 29.1315 42.1443 29.2504 41.4504 29.6104L40.4704 28.4716C40.0413 27.9907 39.4447 27.6747 38.7908 27.582C38.137 27.4894 37.4701 27.6264 36.9138 27.9676L35.9495 28.5774L35.3699 27.9172C34.9418 27.4367 34.3461 27.1209 33.6931 27.0283C33.0401 26.9356 32.3742 27.0724 31.8186 27.4133L25.2745 31.49L18.0031 28.6278C16.8772 28.1884 15.6493 28.0437 14.4454 28.2084C13.2416 28.3732 12.1054 28.8414 11.1534 29.5651L1.87993 36.6199C1.77999 36.6871 1.69552 36.7733 1.63171 36.8731C1.56791 36.9727 1.52611 37.0839 1.50892 37.1997C1.49171 37.3154 1.49946 37.4332 1.53169 37.546C1.56391 37.6588 1.61992 37.7641 1.69628 37.8553C1.77265 37.9466 1.86773 38.022 1.97569 38.0768C2.08366 38.1316 2.20221 38.1648 2.32405 38.1741C2.4459 38.1835 2.56846 38.1689 2.68418 38.1313C2.79991 38.0936 2.90635 38.0337 2.99696 37.9552L12.2704 30.9004C12.9758 30.3627 13.8187 30.0151 14.7118 29.8937C15.6049 29.7723 16.5157 29.8816 17.3498 30.2101L30.2063 35.2492C30.5975 35.4172 30.9056 35.7235 31.0658 36.1039C31.2261 36.4843 31.2262 36.9093 31.0661 37.2898C30.906 37.6703 30.5982 37.9768 30.2071 38.1449C29.816 38.3131 29.3719 38.33 28.9681 38.1921L20.2689 34.9468C20.1581 34.8982 20.0381 34.8717 19.9162 34.869C19.7944 34.8662 19.6732 34.8873 19.5602 34.9309C19.4472 34.9744 19.3446 35.0397 19.2588 35.1225C19.1731 35.2053 19.1058 35.3039 19.0613 35.4124C19.0168 35.521 18.9959 35.6371 18.9999 35.7535C19.0039 35.87 19.0327 35.9845 19.0846 36.09C19.1365 36.1955 19.2103 36.2897 19.3016 36.367C19.3929 36.4442 19.4997 36.5029 19.6155 36.5392L28.2883 39.8096C28.69 39.9585 29.1169 40.0354 29.5477 40.0364C30.436 40.0349 31.2899 39.7073 31.933 39.1213C32.5762 38.5352 32.9596 37.7354 33.0041 36.8869L33.1042 36.8365L42.167 31.1776C42.5276 30.9632 42.9611 30.8906 43.3765 30.975C43.7918 31.0594 44.1569 31.2943 44.3953 31.6303C44.6336 31.9664 44.7268 32.3777 44.6552 32.778C44.5836 33.1783 44.3528 33.5366 44.0112 33.7778L31.7343 42.1024C30.9555 42.6328 30.0617 42.9884 29.1194 43.1428C28.177 43.2973 27.2104 43.2466 26.2914 42.9943L15.9271 40.2027C14.9875 39.9493 13.9978 39.9163 13.042 40.1067C12.0862 40.297 11.1925 40.705 10.4368 41.2962L7.64422 43.4882C7.50435 43.6009 7.40386 43.752 7.35637 43.921C7.30888 44.09 7.31664 44.2688 7.37862 44.4335C7.4406 44.5981 7.55385 44.7407 7.70302 44.842C7.85227 44.9432 8.03032 44.9983 8.21332 44.9999C8.41897 45.0019 8.61877 44.9341 8.7771 44.8084L11.596 42.6416C12.128 42.2245 12.7575 41.9366 13.4309 41.8024C14.1043 41.6682 14.8016 41.6916 15.4635 41.8706L25.8013 44.6573C26.9757 44.9742 28.2096 45.0346 29.4116 44.834C30.6137 44.6334 31.7533 44.1769 32.746 43.4983L45.0492 35.1736C45.4361 34.9122 45.7622 34.5769 46.007 34.1889C46.2517 33.8009 46.4097 33.3687 46.4711 32.9194C46.5325 32.4701 46.4959 32.0136 46.3636 31.5784C46.2313 31.1434 46.0062 30.7393 45.7025 30.3915ZM32.7565 28.8445C32.9475 28.7285 33.1759 28.6825 33.3995 28.7149C33.6232 28.7473 33.8271 28.856 33.9736 29.0208L34.4162 29.5247L28.9839 32.9463L27.282 32.2761L32.7565 28.8445ZM32.5563 35.1283C32.1986 34.5148 31.6446 34.0273 30.9756 33.7375L37.8727 29.3988C38.0635 29.2833 38.2912 29.2371 38.5145 29.2685C38.7379 29.2999 38.942 29.407 39.0899 29.5701L39.9224 30.5477L32.5563 35.1283Z" fill="currentColor"/>
<path id="Vector_3" d="M25.8685 11.1963C26.8382 11.2238 27.8016 11.3423 28.7416 11.5498C28.9961 11.6101 29.2679 11.5806 29.4973 11.4679C29.7266 11.3552 29.8947 11.1686 29.9645 10.9489C30.0343 10.7293 30.0002 10.4947 29.8696 10.2968C29.7391 10.0988 29.5227 9.95377 29.2682 9.89355C28.4783 9.71925 27.6744 9.59602 26.8633 9.52492V8.35845C26.8633 8.13075 26.7585 7.91243 26.5719 7.7514C26.3854 7.59045 26.1324 7.5 25.8685 7.5C25.6047 7.5 25.3517 7.59045 25.1651 7.7514C24.9786 7.91243 24.8738 8.13075 24.8738 8.35845V9.53497C22.2055 9.8481 21.8837 11.4185 21.8837 12.1355C21.8837 13.9181 24.0136 14.6603 25.2892 15.1249L25.535 15.2108L25.9095 15.3421C27.1968 15.7814 27.7585 16.0591 27.7585 16.8569C27.7585 17.6548 27.1383 18.0436 25.927 18.089H25.8685H25.7164C24.5755 17.9985 23.456 17.7655 22.3928 17.3972C22.2697 17.3509 22.137 17.3264 22.0026 17.3255C21.8683 17.3246 21.7351 17.3472 21.6112 17.3919C21.4872 17.4366 21.3751 17.5025 21.2814 17.5856C21.1878 17.6688 21.1146 17.7674 21.0664 17.8756C21.0181 17.9838 20.9958 18.0993 21.0007 18.2152C21.0055 18.331 21.0376 18.4448 21.0948 18.5497C21.1521 18.6546 21.2333 18.7483 21.3337 18.8254C21.4341 18.9025 21.5515 18.9611 21.679 18.998C22.7118 19.3376 23.7823 19.5846 24.8738 19.7352V20.8916C24.8738 21.1193 24.9786 21.3376 25.1651 21.4986C25.3517 21.6596 25.6047 21.75 25.8685 21.75C26.1324 21.75 26.3854 21.6596 26.5719 21.4986C26.7585 21.3376 26.8633 21.1193 26.8633 20.8916V19.6948C28.6714 19.3919 29.748 18.3566 29.748 16.8316C29.748 14.8118 27.8053 14.1453 26.6467 13.7464L26.0617 13.5343C25.1488 13.2111 23.8908 12.7667 23.8908 12.1355C23.8732 11.8326 23.8732 11.1963 25.8685 11.1963Z" fill="currentColor"/>
</g>
</svg>
