<svg width="32" height="32" viewBox="0 0 32 32" fill="none" xmlns="http://www.w3.org/2000/svg">
<g id="coin">
<path id="Vector" d="M19.7333 12C19.4918 11.581 19.1409 11.2356 18.7181 11.0007C18.2954 10.7659 17.8167 10.6504 17.3333 10.6667H14.6667C13.9594 10.6667 13.2811 10.9476 12.781 11.4477C12.281 11.9478 12 12.6261 12 13.3333C12 14.0406 12.281 14.7189 12.781 15.219C13.2811 15.7191 13.9594 16 14.6667 16H17.3333C18.0406 16 18.7189 16.281 19.219 16.7811C19.719 17.2812 20 17.9594 20 18.6667C20 19.3739 19.719 20.0522 19.219 20.5523C18.7189 21.0524 18.0406 21.3333 17.3333 21.3333H14.6667C14.1833 21.3496 13.7047 21.2341 13.2819 20.9993C12.8591 20.7644 12.5082 20.419 12.2667 20M16 9.33333V22.6667M4 16C4 17.5759 4.31039 19.1363 4.91345 20.5922C5.5165 22.0481 6.40042 23.371 7.51472 24.4853C8.62902 25.5996 9.95189 26.4835 11.4078 27.0866C12.8637 27.6896 14.4241 28 16 28C17.5759 28 19.1363 27.6896 20.5922 27.0866C22.0481 26.4835 23.371 25.5996 24.4853 24.4853C25.5996 23.371 26.4835 22.0481 27.0866 20.5922C27.6896 19.1363 28 17.5759 28 16C28 14.4241 27.6896 12.8637 27.0866 11.4078C26.4835 9.95189 25.5996 8.62902 24.4853 7.51472C23.371 6.40042 22.0481 5.5165 20.5922 4.91345C19.1363 4.31039 17.5759 4 16 4C14.4241 4 12.8637 4.31039 11.4078 4.91345C9.95189 5.5165 8.62902 6.40042 7.51472 7.51472C6.40042 8.62902 5.5165 9.95189 4.91345 11.4078C4.31039 12.8637 4 14.4241 4 16Z" stroke="currentColor" stroke-width="1.25" stroke-linecap="round" stroke-linejoin="round"/>
</g>
</svg>
