<svg width="56" height="56" viewBox="0 0 56 56" fill="none" xmlns="http://www.w3.org/2000/svg">
<g id="diamonds">
<path id="Vector" d="M25.2724 47.6312L12.7307 31.5079C11.3121 29.6809 11.3121 26.3209 12.7307 24.5079L25.2724 8.38221C25.5888 7.95695 26.0002 7.61156 26.4738 7.3736C26.9474 7.13564 27.4701 7.01172 28.0001 7.01172C28.5301 7.01172 29.0528 7.13564 29.5264 7.3736C30 7.61156 30.4114 7.95695 30.7277 8.38221L43.2694 24.5055C44.6881 26.3325 44.6881 29.6925 43.2694 31.5055L30.7277 47.6312C30.4114 48.0565 30 48.4019 29.5264 48.6398C29.0528 48.8778 28.5301 49.0017 28.0001 49.0017C27.4701 49.0017 26.9474 48.8778 26.4738 48.6398C26.0002 48.4019 25.5888 48.0565 25.2724 47.6312Z" stroke="currentColor" stroke-width="1.25" stroke-linecap="round" stroke-linejoin="round"/>
</g>
</svg>
