<svg width="40" height="40" viewBox="0 0 40 40" fill="none" xmlns="http://www.w3.org/2000/svg">
<path d="M30.8374 2.94922C30.4818 2.94922 30.1155 2.99522 29.7499 3.08546L30.0312 4.23024C32.2612 3.68292 34.2057 5.37974 34.2057 7.49767C34.2057 12.4584 28.5567 16.1145 26.2017 16.8028L26.5326 17.9352C29.524 17.0605 35.3859 12.9762 35.3865 7.49767C35.3865 4.9893 33.3458 2.94922 30.8374 2.94922ZM5.46414 7.49767C5.46414 5.37974 7.40809 3.68056 9.63867 4.23083L9.92118 3.08546C6.96987 2.36002 4.28516 4.63425 4.28516 7.49767C4.28516 12.9768 10.1477 17.0611 13.1379 17.9352L13.4688 16.8028C11.1131 16.1139 5.46414 12.4584 5.46414 7.49767ZM21.8809 23.3848H17.7901C17.4646 23.3848 17.2003 23.6484 17.2003 23.9746V26.2128C17.2005 26.3008 17.2202 26.3877 17.2582 26.4671C17.2961 26.5465 17.3513 26.6164 17.4198 26.6717C17.4882 26.727 17.5682 26.7663 17.6538 26.7866C17.7395 26.807 17.8286 26.8078 17.9146 26.7891C19.1295 26.5266 20.5421 26.5266 21.7565 26.7891C21.8425 26.8073 21.9315 26.8063 22.0171 26.786C22.1026 26.7657 22.1826 26.7267 22.2513 26.6717C22.3198 26.6164 22.3751 26.5466 22.413 26.4672C22.451 26.3878 22.4707 26.3009 22.4707 26.2128V23.9746C22.4707 23.6484 22.2071 23.3848 21.8809 23.3848ZM21.2911 25.5098C20.3463 25.3795 19.3248 25.3789 18.3799 25.5104V24.5638H21.2911V25.5098ZM27.7959 35.8181H11.8751C11.5496 35.8181 11.2854 36.0818 11.2854 36.4079V38.5866C11.2854 38.9128 11.5496 39.1764 11.8751 39.1764H27.7959C28.1221 39.1764 28.3857 38.9128 28.3857 38.5866V36.4079C28.3857 36.0818 28.1221 35.8181 27.7959 35.8181ZM27.2061 37.9968H12.4649V36.9977H27.2061V37.9968Z" fill="currentColor" stroke="currentColor" stroke-width="0.5"/>
<path d="M26.7753 27.5078H12.8964C12.5709 27.5078 12.3066 27.7714 12.3066 28.0976V36.4071C12.3066 36.7333 12.5709 36.9969 12.8964 36.9969H26.7753C27.1009 36.9969 27.3651 36.7327 27.3651 36.4071V28.0976C27.3651 27.7714 27.1015 27.5078 26.7753 27.5078ZM26.1856 35.8173H13.4862V28.6874H26.1856V35.8173Z" fill="currentColor" stroke="currentColor" stroke-width="0.5"/>
<path d="M30.2302 1.72635C30.0415 1.53526 29.7902 1.42969 29.5225 1.42969H10.1497C10.0182 1.4295 9.88806 1.45547 9.76676 1.5061C9.64545 1.55673 9.53543 1.631 9.44312 1.72458C9.25439 1.91508 9.15117 2.16692 9.15235 2.43469C9.15648 2.83633 9.17241 3.23149 9.19069 3.6815C9.20543 4.04481 9.22608 4.40458 9.25026 4.76258C9.54456 9.13056 10.5177 13.1217 12.0653 16.3048C12.2905 16.7684 12.5341 17.2229 12.7955 17.6672C13.9774 19.6742 15.331 21.1139 16.8202 21.9473C16.8966 21.99 16.9815 22.0152 17.0688 22.021C17.1562 22.0269 17.2437 22.0131 17.3251 21.9809C17.4619 21.9856 17.6164 21.9856 17.7898 21.9856H22.356C22.4364 22.0154 22.5223 22.0275 22.6078 22.021C22.6933 22.0145 22.7764 21.9895 22.8514 21.9478C24.34 21.1151 25.6942 19.6748 26.8761 17.6678C27.1362 17.2232 27.3794 16.7689 27.6051 16.3059C29.1539 13.1211 30.127 9.12938 30.4207 4.76317C30.4443 4.40517 30.465 4.04658 30.4797 3.68032C30.4968 3.26806 30.5133 2.85521 30.5174 2.43764C30.5195 2.3059 30.4951 2.1751 30.4458 2.05293C30.3965 1.93077 30.3232 1.81972 30.2302 1.72635ZM29.3013 3.63314C29.2863 3.9835 29.267 4.33366 29.2435 4.68355C28.9604 8.89995 28.0268 12.7401 26.544 15.7893C26.3325 16.2246 26.1041 16.6516 25.8593 17.0691C24.8531 18.7777 23.6842 20.0647 22.4674 20.8054H17.7904C17.7916 20.806 17.3941 20.8054 17.2047 20.8054C15.9874 20.0641 14.8185 18.7777 13.8129 17.0685C13.5676 16.6514 13.3389 16.2246 13.1275 15.7893C11.6454 12.7412 10.7123 8.90113 10.4281 4.68355C10.4034 4.316 10.3835 3.94813 10.3685 3.58006C10.3555 3.25744 10.342 2.93483 10.3361 2.60927H29.3349C29.329 2.95311 29.3149 3.29283 29.3013 3.63314Z" fill="currentColor" stroke="currentColor" stroke-width="0.5"/>
<path d="M21.8807 20.8047H17.7634C16.7708 20.8047 16.6723 22.7292 16.6723 22.7486C16.6723 22.7669 16.7879 24.5634 17.7899 24.5634H21.9078C22.8834 24.5634 22.999 22.7669 22.999 22.7486C22.999 22.7292 22.9005 20.8047 21.8807 20.8047ZM21.6654 23.3838H18.0052C17.9285 23.1904 17.8536 22.8689 17.8513 22.7492C17.853 22.6059 17.9386 22.2119 18.0229 21.9843H21.6477C21.7327 22.2119 21.8176 22.6059 21.8194 22.748C21.8176 22.8689 21.7421 23.191 21.6654 23.3838ZM22.0052 25.6345C20.6274 25.3378 19.0438 25.3366 17.6655 25.6345C15.7115 26.0573 14.5449 26.978 14.5449 28.0962C14.5449 28.4224 14.8091 28.686 15.1347 28.686H24.5359C24.8615 28.686 25.1257 28.4224 25.1257 28.0962C25.1257 26.9774 23.9591 26.0573 22.0052 25.6345ZM16.1409 27.5065C16.5054 27.2322 17.1034 26.9633 17.9144 26.7875C19.1299 26.525 20.5425 26.525 21.7557 26.7875C22.5672 26.9633 23.1653 27.2322 23.5298 27.5065H16.1409Z" fill="currentColor" stroke="currentColor" stroke-width="0.5"/>
</svg>
