<svg width="22" height="33" viewBox="0 0 22 33" fill="none" xmlns="http://www.w3.org/2000/svg">
<g id="Frame 175473">
<path id="Vector" d="M10.6834 0.572266C12.7064 0.572266 14.5328 1.3972 15.8529 2.74795H15.8651C17.1852 4.0859 17.9996 5.94932 17.9996 7.98779C17.9996 10.0382 17.1852 11.9016 15.8651 13.2395C14.5323 14.5775 12.7064 15.4157 10.6834 15.4157C8.65986 15.4157 6.83354 14.578 5.5016 13.2395C4.18149 11.9016 3.35449 10.0382 3.35449 7.98779C3.35449 5.94932 4.18107 4.0859 5.5016 2.74795C6.83354 1.3972 8.65939 0.572266 10.6834 0.572266ZM15.1247 3.486C13.99 2.33595 12.4231 1.62261 10.6834 1.62261C8.94365 1.62261 7.3767 2.33548 6.24155 3.486C5.10686 4.63605 4.40302 6.2369 4.40302 7.98779C4.40302 9.75063 5.10639 11.3392 6.24155 12.5015C7.3767 13.652 8.94365 14.3649 10.6834 14.3649C12.4231 14.3649 13.99 13.6525 15.1247 12.5015C16.2599 11.3387 16.9632 9.75063 16.9632 7.98779C16.9632 6.2369 16.2599 4.63605 15.1247 3.486Z" fill="currentColor"/>
<path id="Vector_2" d="M5.30766 17.2422H5.89961H6.24524L6.38103 17.5673C7.47913 20.1934 8.67571 22.8442 9.62587 24.97C10.0332 25.858 10.391 26.6707 10.687 27.3209C10.9703 26.6707 11.3408 25.8705 11.7356 24.97C12.6857 22.8442 13.8827 20.1934 14.9926 17.5673L15.1284 17.2422H15.474H16.0659C17.4483 17.2422 18.7062 17.8179 19.6071 18.7306C20.5203 19.6561 21.0874 20.931 21.0874 22.3316V32.2351V32.7605H20.5569H0.804079H0.286133V32.2351V22.3316C0.286133 20.931 0.853712 19.6561 1.7664 18.7306C2.66698 17.8179 3.92571 17.2422 5.30766 17.2422ZM5.55445 18.293H5.30766C4.20992 18.293 3.22276 18.7557 2.49461 19.4805C1.77861 20.2062 1.33466 21.2186 1.33466 22.3316V31.6973H20.0394V22.3316C20.0394 21.219 19.595 20.2062 18.8799 19.4805C18.1517 18.7553 17.1649 18.293 16.0663 18.293H15.82C14.7714 20.7687 13.6115 23.3444 12.6861 25.4081C12.0324 26.8462 11.5018 28.0466 11.1689 28.8345L10.6879 29.9727L10.2069 28.8345C9.8735 28.047 9.33076 26.8462 8.68919 25.4081C7.7625 23.3321 6.60303 20.7691 5.55445 18.293Z" fill="currentColor"/>
<path id="Vector_3" d="M10.6845 27.3326L11.129 26.3197L11.9803 24.3315L11.6469 21.068L11.3505 18.1291H10.6845H10.0182L9.72217 21.068L9.37659 24.332L10.2402 26.3202L10.6845 27.3326ZM12.0787 26.745L11.1533 28.8457L10.6845 29.9464L10.2036 28.8457L9.29043 26.745L8.37722 24.6315L8.31543 24.5067L8.32764 24.369L8.68501 20.955L9.03059 17.5415L9.07975 17.0664H9.54853H10.6837H11.8184H12.2872L12.3242 17.5415L12.6819 20.955L13.0275 24.369L13.0397 24.5067L12.9905 24.6315L12.0787 26.745Z" fill="currentColor"/>
<path id="Vector_4" d="M14.2498 25.73C13.9661 25.73 13.7314 25.4923 13.7314 25.2046C13.7314 24.9047 13.9661 24.6797 14.2498 24.6797H18.383C18.6663 24.6797 18.901 24.9051 18.901 25.2046C18.901 25.4923 18.6663 25.73 18.383 25.73H14.2498Z" fill="currentColor"/>
</g>
</svg>
