<svg width="708" height="840" viewBox="0 0 708 840" fill="none" xmlns="http://www.w3.org/2000/svg">
<g filter="url(#filter0_bdi_135_95567)">
<g clip-path="url(#clip0_135_95567)">
<path d="M54 44C54 41.7909 55.7909 40 58 40H638C640.209 40 642 41.7909 642 44V756C642 758.209 640.209 760 638 760H58C55.7909 760 54 758.209 54 756V44Z" fill="#FAFCFF" fill-opacity="0.7" shape-rendering="crispEdges"/>
<path d="M474.639 325.681V368.001C474.639 494.161 352.559 552.001 351.359 552.561C350.306 553.049 349.16 553.301 347.999 553.301C346.839 553.301 345.692 553.049 344.639 552.561C343.439 552.001 221.359 493.761 221.359 368.001V325.681C221.36 324.293 221.721 322.929 222.408 321.722C223.096 320.516 224.085 319.51 225.279 318.801L343.919 248.001C345.136 247.299 346.515 246.93 347.919 246.93C349.324 246.93 350.703 247.299 351.919 248.001L470.559 318.561C471.819 319.269 472.863 320.305 473.582 321.559C474.3 322.812 474.666 324.237 474.639 325.681ZM404.559 370.401C403.06 368.911 401.033 368.075 398.919 368.075C396.806 368.075 394.778 368.911 393.279 370.401L338.239 425.441L307.199 394.322C305.669 393.011 303.7 392.326 301.687 392.404C299.674 392.482 297.764 393.316 296.339 394.741C294.914 396.166 294.079 398.076 294.002 400.089C293.924 402.102 294.609 404.071 295.919 405.602L332.639 442.321C334.138 443.811 336.166 444.648 338.279 444.648C340.393 444.648 342.42 443.811 343.919 442.321L404.639 381.602C406.129 380.103 406.966 378.075 406.966 375.961C406.966 373.848 406.129 371.82 404.639 370.321L404.559 370.401Z" fill="url(#paint0_linear_135_95567)"/>
<path d="M425.68 627.36C425.969 628.384 426.052 629.456 425.922 630.513C425.793 631.57 425.453 632.59 424.924 633.514C424.395 634.437 423.687 635.246 422.842 635.893C421.996 636.54 421.03 637.011 420 637.28C378.441 649.847 334.323 651.364 292 641.68C290.975 641.443 290.008 641.008 289.152 640.397C288.296 639.787 287.568 639.014 287.011 638.122C286.454 637.231 286.078 636.239 285.904 635.202C285.731 634.165 285.763 633.104 286 632.08C286.236 631.055 286.672 630.088 287.282 629.232C287.892 628.376 288.665 627.649 289.557 627.092C290.448 626.534 291.441 626.158 292.478 625.985C293.514 625.811 294.575 625.843 295.6 626.08C335.273 635.191 376.637 633.785 415.6 622C416.613 621.68 417.68 621.565 418.739 621.662C419.797 621.759 420.826 622.066 421.764 622.565C422.702 623.064 423.532 623.745 424.204 624.568C424.877 625.392 425.378 626.341 425.68 627.36ZM564 505.84C562.131 504.848 559.946 504.636 557.922 505.25C555.899 505.865 554.2 507.256 553.2 509.12C534.026 545.089 505.787 575.425 471.28 597.12C469.476 598.244 468.193 600.039 467.713 602.11C467.233 604.18 467.595 606.356 468.72 608.16C469.844 609.963 471.639 611.246 473.709 611.726C475.78 612.206 477.956 611.844 479.76 610.72C516.514 587.478 546.57 555.05 566.96 516.64C567.977 514.81 568.238 512.655 567.684 510.636C567.131 508.616 565.808 506.895 564 505.84ZM532 520C555.286 484.314 567.658 442.611 567.6 400C567.6 397.878 566.757 395.843 565.256 394.343C563.756 392.843 561.721 392 559.6 392C557.478 392 555.443 392.843 553.943 394.343C552.442 395.843 551.6 397.878 551.6 400C551.659 439.483 540.204 478.126 518.64 511.2C501.02 538.156 477.317 560.598 449.44 576.72C448.483 577.22 447.638 577.908 446.955 578.743C446.272 579.579 445.765 580.543 445.465 581.58C445.164 582.616 445.076 583.702 445.206 584.773C445.336 585.844 445.682 586.878 446.222 587.812C446.762 588.746 447.485 589.561 448.348 590.209C449.211 590.856 450.196 591.322 451.244 591.579C452.292 591.835 453.382 591.878 454.446 591.702C455.511 591.527 456.529 591.139 457.44 590.56C487.468 573.193 513.005 549.026 532 520ZM351.52 575.52C349.398 575.52 347.363 576.363 345.863 577.863C344.362 579.363 343.52 581.398 343.52 583.52C343.52 585.642 344.362 587.676 345.863 589.177C347.363 590.677 349.398 591.52 351.52 591.52C401.092 590.892 448.425 570.775 483.28 535.52C510.4 507.28 539.28 450.24 539.28 400.16C539.28 398.038 538.437 396.003 536.936 394.503C535.436 393.003 533.401 392.16 531.28 392.16C529.158 392.16 527.123 393.003 525.623 394.503C524.122 396.003 523.28 398.038 523.28 400.16C523.28 448.96 493.12 502.24 471.76 524.48C439.916 556.592 396.739 574.92 351.52 575.52ZM278 178.32C278.769 178.433 279.55 178.433 280.32 178.32C319.284 166.55 360.645 165.143 400.32 174.24C402.431 174.728 404.649 174.357 406.487 173.209C408.325 172.062 409.632 170.231 410.12 168.12C410.608 166.009 410.237 163.79 409.089 161.952C407.941 160.114 406.111 158.808 404 158.32C361.674 148.651 317.561 150.167 276 162.72C273.878 163.027 271.965 164.165 270.682 165.883C269.4 167.601 268.852 169.758 269.16 171.88C269.467 174.002 270.605 175.914 272.323 177.197C274.041 178.48 276.198 179.027 278.32 178.72L278 178.32ZM132 294.16C133.868 295.152 136.053 295.364 138.077 294.749C140.101 294.134 141.799 292.743 142.8 290.88C161.976 254.912 190.215 224.578 224.72 202.88C225.874 202.513 226.931 201.889 227.809 201.054C228.688 200.219 229.365 199.196 229.79 198.061C230.215 196.926 230.376 195.71 230.263 194.503C230.149 193.297 229.762 192.132 229.132 191.097C228.502 190.062 227.646 189.183 226.627 188.527C225.608 187.872 224.453 187.456 223.25 187.312C222.047 187.168 220.826 187.299 219.681 187.695C218.536 188.091 217.496 188.743 216.64 189.6C179.777 212.697 149.582 245.015 129.04 283.36C128.022 285.189 127.761 287.345 128.315 289.364C128.868 291.383 130.191 293.105 132 294.16ZM246.32 223.28C247.276 222.78 248.121 222.091 248.804 221.256C249.487 220.421 249.994 219.456 250.295 218.42C250.595 217.384 250.683 216.298 250.553 215.226C250.423 214.155 250.077 213.122 249.537 212.188C248.998 211.253 248.274 210.438 247.411 209.791C246.548 209.144 245.563 208.678 244.515 208.421C243.467 208.164 242.378 208.122 241.313 208.297C240.248 208.472 239.23 208.861 238.32 209.44C208.377 226.835 182.924 251 164 280C140.629 315.659 128.173 357.364 128.16 400C128.16 402.122 129.002 404.156 130.503 405.657C132.003 407.157 134.038 408 136.16 408C138.281 408 140.316 407.157 141.816 405.657C143.317 404.156 144.16 402.122 144.16 400C144.105 360.518 155.559 321.875 177.12 288.8C194.741 261.846 218.443 239.404 246.32 223.28ZM344.48 224.56C345.53 224.56 346.57 224.353 347.541 223.951C348.512 223.549 349.394 222.96 350.136 222.217C350.879 221.474 351.469 220.592 351.871 219.621C352.273 218.651 352.48 217.61 352.48 216.56C352.48 214.438 351.637 212.403 350.136 210.903C348.636 209.403 346.601 208.56 344.48 208.56C294.907 209.187 247.575 229.305 212.72 264.56C185.28 292.8 156 349.84 156 400C156 402.122 156.842 404.156 158.343 405.657C159.843 407.157 161.878 408 164 408C166.121 408 168.156 407.157 169.656 405.657C171.157 404.156 172 402.122 172 400C172 351.2 202.16 297.92 223.52 275.68C255.514 243.335 298.987 224.934 344.48 224.48V224.56Z" fill="url(#paint1_linear_135_95567)"/>
<g filter="url(#filter1_d_135_95567)">
<circle cx="518" cy="232" r="55" fill="white"/>
</g>
<path d="M497.843 224.114C497.843 223.859 497.944 223.614 498.125 223.433C498.305 223.253 498.55 223.152 498.805 223.152H526.417C526.672 223.152 526.917 223.253 527.097 223.433C527.278 223.614 527.379 223.859 527.379 224.114C527.379 224.369 527.278 224.614 527.097 224.794C526.917 224.975 526.672 225.076 526.417 225.076H498.805C498.55 225.076 498.305 224.975 498.125 224.794C497.944 224.614 497.843 224.369 497.843 224.114ZM498.805 214.25H519.938C520.194 214.25 520.438 214.149 520.619 213.968C520.799 213.788 520.901 213.543 520.901 213.288C520.901 213.033 520.799 212.788 520.619 212.608C520.438 212.427 520.194 212.326 519.938 212.326H498.805C498.55 212.326 498.305 212.427 498.125 212.608C497.944 212.788 497.843 213.033 497.843 213.288C497.843 213.543 497.944 213.788 498.125 213.968C498.305 214.149 498.55 214.25 498.805 214.25ZM498.805 219.663H526.417C526.672 219.663 526.917 219.562 527.097 219.381C527.278 219.201 527.379 218.956 527.379 218.701C527.379 218.446 527.278 218.201 527.097 218.021C526.917 217.84 526.672 217.739 526.417 217.739H498.805C498.55 217.739 498.305 217.84 498.125 218.021C497.944 218.201 497.843 218.446 497.843 218.701C497.843 218.956 497.944 219.201 498.125 219.381C498.305 219.562 498.55 219.663 498.805 219.663ZM498.805 230.489H526.417C526.672 230.489 526.917 230.388 527.097 230.207C527.278 230.027 527.379 229.782 527.379 229.527C527.379 229.272 527.278 229.027 527.097 228.846C526.917 228.666 526.672 228.565 526.417 228.565H498.805C498.55 228.565 498.305 228.666 498.125 228.846C497.944 229.027 497.843 229.272 497.843 229.527C497.843 229.782 497.944 230.027 498.125 230.207C498.305 230.388 498.55 230.489 498.805 230.489ZM544.491 245.546C544.336 245.853 544.287 246.129 544.328 246.469L544.559 248.399C544.747 249.975 543.893 251.453 542.435 252.078L541.408 252.517L544.196 258.506C544.288 258.704 544.324 258.923 544.301 259.139C544.277 259.356 544.194 259.562 544.061 259.735C543.929 259.908 543.752 260.041 543.549 260.12C543.346 260.2 543.125 260.222 542.91 260.184L540.086 259.691L538.645 262.169C538.536 262.358 538.377 262.513 538.186 262.617C537.994 262.722 537.778 262.772 537.56 262.761C537.342 262.752 537.131 262.683 536.95 262.561C536.769 262.44 536.625 262.271 536.533 262.073L533.798 256.199L533.015 255.962C532.687 255.863 532.407 255.863 532.078 255.962L531.295 256.198L528.56 262.073C528.464 262.28 528.312 262.454 528.12 262.576C527.928 262.699 527.705 262.763 527.478 262.762C527.269 262.763 527.064 262.708 526.884 262.604C526.703 262.5 526.553 262.35 526.448 262.17L525.008 259.691L522.184 260.184C521.969 260.222 521.748 260.2 521.545 260.121C521.342 260.042 521.165 259.908 521.032 259.735C520.899 259.562 520.817 259.356 520.793 259.14C520.769 258.923 520.805 258.704 520.898 258.506L521.715 256.75H494.114C493.008 256.75 492.109 255.851 492.109 254.745V205.107C492.109 204.001 493.008 203.102 494.114 203.102H526.081C526.362 203.102 526.628 203.157 526.873 203.262C526.91 203.277 526.945 203.294 526.979 203.313C527.171 203.409 527.347 203.536 527.499 203.689L533.354 209.544C533.506 209.696 533.633 209.871 533.73 210.064C533.749 210.098 533.766 210.133 533.781 210.17C533.888 210.42 533.942 210.689 533.941 210.961V230.849C534.2 230.961 534.445 231.103 534.671 231.272L536.226 232.436C536.501 232.642 536.764 232.738 537.107 232.757L539.047 232.865C540.632 232.953 541.939 234.05 542.301 235.595L542.744 237.487C542.823 237.821 542.963 238.064 543.213 238.299L544.63 239.629C545.787 240.715 546.083 242.396 545.368 243.812L544.491 245.546ZM527.475 206.387V209.567H530.656L527.475 206.387ZM522.611 254.825L523.686 252.517L522.658 252.078C521.2 251.453 520.346 249.974 520.535 248.399L520.734 246.728H498.805C498.55 246.728 498.305 246.627 498.125 246.446C497.944 246.266 497.843 246.021 497.843 245.766C497.843 245.511 497.944 245.266 498.125 245.085C498.305 244.905 498.55 244.804 498.805 244.804H520.227L519.726 243.812C519.318 243.006 519.24 242.114 519.461 241.294L498.806 241.315H498.805C498.679 241.315 498.553 241.29 498.437 241.242C498.32 241.194 498.214 241.123 498.124 241.034C497.944 240.853 497.842 240.609 497.842 240.353C497.842 240.098 497.943 239.853 498.124 239.673C498.304 239.492 498.549 239.391 498.804 239.391L520.741 239.369L521.88 238.299C522.131 238.064 522.271 237.822 522.349 237.488L522.72 235.902H498.805C498.55 235.902 498.305 235.801 498.125 235.62C497.944 235.44 497.843 235.195 497.843 234.94C497.843 234.685 497.944 234.44 498.125 234.26C498.305 234.079 498.55 233.978 498.805 233.978H523.655C524.261 233.329 525.104 232.918 526.046 232.865L527.986 232.757C528.329 232.738 528.592 232.642 528.867 232.437L530.423 231.272C530.891 230.92 531.438 230.69 532.017 230.6V211.492H527.034C526.216 211.492 525.551 210.826 525.551 210.008V205.026H494.114C494.093 205.027 494.073 205.035 494.058 205.05C494.043 205.065 494.034 205.085 494.033 205.107V254.745C494.033 254.788 494.071 254.825 494.114 254.825H522.611V254.825ZM528.953 256.669C527.867 256.599 526.854 256.031 526.226 255.071L525.288 253.636L523.234 258.047L525.337 257.679C525.531 257.645 525.73 257.672 525.909 257.755C526.087 257.838 526.236 257.974 526.335 258.144L527.407 259.989L528.953 256.669ZM541.859 258.047L539.805 253.636L538.867 255.071C538.239 256.031 537.228 256.602 536.141 256.671L537.686 259.989L538.758 258.144C538.857 257.973 539.006 257.838 539.184 257.755C539.363 257.672 539.562 257.645 539.756 257.679L541.859 258.047ZM543.313 241.032L541.896 239.702C541.37 239.209 541.035 238.628 540.871 237.926L540.427 236.034C540.259 235.317 539.676 234.827 538.94 234.786L537 234.679C536.28 234.639 535.65 234.409 535.073 233.977L533.517 232.813C532.928 232.371 532.166 232.371 531.576 232.813L530.02 233.977C529.443 234.409 528.813 234.639 528.093 234.679L526.153 234.786C525.418 234.827 524.834 235.317 524.666 236.034L524.223 237.926C524.058 238.628 523.723 239.209 523.197 239.702L521.78 241.032C521.243 241.536 521.111 242.287 521.443 242.944L522.32 244.678C522.454 244.942 522.555 245.222 522.62 245.511C522.629 245.544 522.636 245.577 522.641 245.611C522.709 245.962 522.721 246.322 522.676 246.698L522.445 248.627C522.358 249.358 522.739 250.018 523.416 250.308L525.202 251.073C525.865 251.357 526.379 251.788 526.773 252.391L527.837 254.018C528.24 254.634 528.956 254.895 529.661 254.682L531.521 254.12C531.866 254.015 532.206 253.963 532.547 253.963C532.887 253.963 533.227 254.015 533.572 254.12L535.432 254.682C536.137 254.895 536.853 254.634 537.256 254.018L538.32 252.391C538.714 251.788 539.228 251.357 539.891 251.073L541.677 250.308C542.354 250.018 542.735 249.358 542.648 248.627L542.417 246.698C542.332 245.982 542.448 245.321 542.773 244.678L543.65 242.944C543.982 242.287 543.85 241.536 543.313 241.032ZM540.673 243.618C540.673 248.1 537.028 251.745 532.547 251.745C528.066 251.745 524.42 248.1 524.42 243.618C524.42 239.137 528.066 235.492 532.547 235.492C537.028 235.492 540.673 239.137 540.673 243.618ZM538.749 243.618C538.749 240.199 535.967 237.416 532.547 237.416C529.127 237.416 526.345 240.199 526.345 243.618C526.345 247.038 529.127 249.821 532.547 249.821C535.967 249.821 538.749 247.038 538.749 243.618ZM535.199 240.785L531.204 244.411L529.928 243.135C529.747 242.956 529.503 242.856 529.249 242.857C528.995 242.858 528.751 242.959 528.571 243.139C528.392 243.318 528.29 243.562 528.29 243.816C528.289 244.07 528.389 244.315 528.567 244.495L530.491 246.42C530.581 246.509 530.687 246.58 530.804 246.628C530.92 246.677 531.046 246.702 531.172 246.701C531.411 246.702 531.642 246.613 531.819 246.452L536.492 242.21C536.586 242.126 536.662 242.023 536.716 241.909C536.77 241.794 536.8 241.671 536.807 241.544C536.813 241.418 536.794 241.292 536.751 241.173C536.709 241.054 536.643 240.945 536.558 240.851C536.387 240.662 536.147 240.549 535.892 240.537C535.637 240.524 535.388 240.614 535.199 240.785Z" fill="#337ECC"/>
<g filter="url(#filter2_d_135_95567)">
<circle cx="169.827" cy="569.827" r="77.8271" fill="white"/>
</g>
<path d="M215.166 599.186H127.127C122.953 599.186 119.555 595.79 119.555 591.614V534.432C119.555 530.257 122.953 526.859 127.127 526.859H215.166C219.34 526.859 222.738 530.257 222.738 534.432V591.616C222.738 595.79 219.342 599.186 215.166 599.186ZM127.127 529.204C124.245 529.204 121.9 531.55 121.9 534.432V591.616C121.9 594.498 124.245 596.843 127.127 596.843H215.166C218.048 596.843 220.393 594.498 220.393 591.616V534.432C220.393 531.55 218.048 529.204 215.166 529.204H127.127Z" fill="#337ECC"/>
<path d="M221.565 586.579H120.727C120.08 586.579 119.555 586.054 119.555 585.407C119.555 584.76 120.08 584.234 120.727 584.234H221.565C222.213 584.234 222.738 584.76 222.738 585.407C222.738 586.054 222.213 586.579 221.565 586.579ZM158.546 615.443C157.899 615.443 157.374 614.917 157.374 614.27V598.014C157.374 597.367 157.899 596.841 158.546 596.841C159.193 596.841 159.719 597.367 159.719 598.014V614.27C159.719 614.917 159.193 615.443 158.546 615.443ZM183.746 615.443C183.099 615.443 182.574 614.917 182.574 614.27V598.014C182.574 597.367 183.099 596.841 183.746 596.841C184.394 596.841 184.919 597.367 184.919 598.014V614.27C184.919 614.917 184.394 615.443 183.746 615.443Z" fill="#337ECC"/>
<path d="M194.841 615.44H147.452C146.805 615.44 146.28 614.915 146.28 614.267C146.28 613.62 146.805 613.095 147.452 613.095H194.841C195.489 613.095 196.014 613.62 196.014 614.267C196.014 614.915 195.489 615.44 194.841 615.44ZM210.628 562.655H207.645C206.998 562.655 206.473 562.129 206.473 561.482C206.473 560.835 206.998 560.31 207.645 560.31H210.628C211.276 560.31 211.801 559.784 211.801 559.137V541.408C211.801 540.761 211.276 540.236 210.628 540.236H131.665C131.018 540.236 130.493 540.761 130.493 541.408V559.137C130.493 559.784 131.018 560.31 131.665 560.31H183.824C184.471 560.31 184.997 560.835 184.997 561.482C184.997 562.129 184.471 562.655 183.824 562.655H131.665C129.726 562.655 128.147 561.076 128.147 559.137V541.408C128.147 539.469 129.726 537.891 131.665 537.891H210.628C212.568 537.891 214.146 539.469 214.146 541.408V559.137C214.146 561.076 212.568 562.655 210.628 562.655Z" fill="#337ECC"/>
<path d="M140.288 556.819C139.641 556.819 139.115 556.294 139.115 555.647V544.899C139.115 544.252 139.641 543.727 140.288 543.727C140.935 543.727 141.46 544.252 141.46 544.899V555.647C141.46 556.294 140.935 556.819 140.288 556.819Z" fill="#337ECC"/>
<path d="M136.489 555.248C136.188 555.248 135.888 555.133 135.658 554.906C135.439 554.686 135.315 554.388 135.315 554.077C135.315 553.766 135.439 553.468 135.658 553.248L143.259 545.648C143.716 545.19 144.46 545.19 144.917 545.648C145.374 546.105 145.374 546.848 144.917 547.306L137.316 554.906C137.089 555.133 136.789 555.248 136.489 555.248Z" fill="#337ECC"/>
<path d="M144.089 555.246C143.789 555.246 143.489 555.131 143.259 554.903L135.658 547.303C135.201 546.846 135.201 546.102 135.658 545.645C136.116 545.188 136.859 545.188 137.316 545.645L144.917 553.245C145.136 553.465 145.26 553.763 145.26 554.074C145.26 554.385 145.136 554.683 144.917 554.903C144.697 555.122 144.399 555.246 144.089 555.246ZM156.572 556.819C155.925 556.819 155.399 556.294 155.399 555.647V544.899C155.399 544.252 155.925 543.727 156.572 543.727C157.219 543.727 157.744 544.252 157.744 544.899V555.647C157.744 556.294 157.219 556.819 156.572 556.819Z" fill="#337ECC"/>
<path d="M152.773 555.248C152.473 555.248 152.172 555.133 151.943 554.906C151.723 554.686 151.6 554.388 151.6 554.077C151.6 553.766 151.723 553.468 151.943 553.248L159.543 545.648C160 545.19 160.744 545.19 161.201 545.648C161.658 546.105 161.658 546.848 161.201 547.306L153.601 554.906C153.373 555.133 153.073 555.248 152.773 555.248Z" fill="#337ECC"/>
<path d="M160.371 555.246C160.071 555.246 159.771 555.131 159.541 554.903L151.941 547.303C151.483 546.846 151.483 546.102 151.941 545.645C152.398 545.188 153.141 545.188 153.599 545.645L161.199 553.245C161.419 553.465 161.542 553.763 161.542 554.074C161.542 554.385 161.419 554.683 161.199 554.903C160.972 555.131 160.671 555.246 160.371 555.246ZM172.856 556.819C172.209 556.819 171.684 556.294 171.684 555.647V544.899C171.684 544.252 172.209 543.727 172.856 543.727C173.504 543.727 174.029 544.252 174.029 544.899V555.647C174.029 556.294 173.504 556.819 172.856 556.819Z" fill="#337ECC"/>
<path d="M169.057 555.248C168.757 555.248 168.457 555.133 168.227 554.906C168.007 554.686 167.884 554.388 167.884 554.077C167.884 553.766 168.007 553.468 168.227 553.248L175.827 545.648C176.284 545.19 177.028 545.19 177.485 545.648C177.942 546.105 177.942 546.848 177.485 547.306L169.885 554.906C169.657 555.133 169.357 555.248 169.057 555.248Z" fill="#337ECC"/>
<path d="M176.655 555.248C176.355 555.248 176.055 555.133 175.825 554.906L168.225 547.306C167.768 546.848 167.768 546.105 168.225 545.648C168.682 545.19 169.425 545.19 169.883 545.648L177.483 553.248C177.703 553.468 177.826 553.766 177.826 554.077C177.826 554.388 177.703 554.686 177.483 554.906C177.256 555.133 176.956 555.248 176.655 555.248ZM205.793 575.545H185.679C184.012 575.545 182.654 574.187 182.654 572.52V560.14C182.654 558.473 184.012 557.115 185.679 557.115H205.793C207.46 557.115 208.818 558.473 208.818 560.14V572.52C208.818 574.187 207.46 575.545 205.793 575.545ZM185.679 559.458C185.304 559.458 184.999 559.763 184.999 560.138V572.518C184.999 572.893 185.304 573.198 185.679 573.198H205.793C206.168 573.198 206.473 572.893 206.473 572.518V560.138C206.473 559.763 206.168 559.458 205.793 559.458H185.679Z" fill="#337ECC"/>
<path d="M195.735 571.541C194.208 571.541 192.965 570.298 192.965 568.772V567.552C192.294 566.839 191.912 565.885 191.922 564.897C191.943 562.831 193.641 561.136 195.707 561.122C196.741 561.122 197.702 561.518 198.424 562.238C199.149 562.958 199.548 563.915 199.548 564.935C199.548 565.929 199.173 566.858 198.504 567.559V568.772C198.507 570.298 197.264 571.541 195.735 571.541ZM195.716 563.465C194.928 563.469 194.276 564.124 194.267 564.919C194.262 565.378 194.48 565.821 194.848 566.103C195.139 566.326 195.31 566.67 195.31 567.036V568.772C195.31 568.884 195.355 568.992 195.435 569.072C195.514 569.151 195.622 569.196 195.735 569.196C195.847 569.196 195.955 569.151 196.035 569.072C196.114 568.992 196.159 568.884 196.159 568.772V567.038C196.159 566.67 196.33 566.326 196.623 566.103C196.992 565.826 197.2 565.399 197.2 564.935C197.2 564.543 197.048 564.178 196.769 563.901C196.492 563.619 196.117 563.465 195.716 563.465ZM200.617 559.459C200.306 559.459 200.008 559.335 199.788 559.116C199.568 558.896 199.445 558.598 199.445 558.287V555.454C199.445 554.952 199.346 554.467 199.154 554.012C198.966 553.571 198.699 553.172 198.359 552.832C198.016 552.49 197.62 552.222 197.179 552.035C196.267 551.648 195.205 551.648 194.292 552.035C193.852 552.222 193.453 552.49 193.113 552.832C192.773 553.172 192.503 553.571 192.318 554.012C192.126 554.467 192.027 554.952 192.027 555.454V558.287C192.027 558.598 191.903 558.896 191.683 559.116C191.464 559.335 191.166 559.459 190.855 559.459L187.37 559.457C186.723 559.457 186.197 558.932 186.197 558.284V555.454C186.197 554.166 186.451 552.916 186.948 551.739C187.428 550.602 188.116 549.582 188.99 548.707C189.865 547.832 190.885 547.145 192.022 546.664C193.2 546.165 194.45 545.914 195.737 545.914C197.024 545.914 198.274 546.167 199.452 546.664C200.589 547.145 201.609 547.832 202.484 548.707C203.359 549.582 204.046 550.602 204.526 551.739C205.026 552.916 205.277 554.166 205.277 555.454V558.284C205.277 558.932 204.751 559.457 204.104 559.457L200.617 559.459ZM195.735 549.399C196.551 549.399 197.346 549.558 198.091 549.875C198.814 550.18 199.461 550.616 200.017 551.172C200.573 551.728 201.009 552.375 201.314 553.097C201.63 553.843 201.79 554.635 201.79 555.454V557.114H202.929V555.454C202.929 554.483 202.739 553.54 202.364 552.651C202.003 551.797 201.48 551.021 200.823 550.365C200.162 549.704 199.393 549.185 198.537 548.824C197.65 548.449 196.697 548.257 195.735 548.259C194.79 548.258 193.854 548.444 192.981 548.805C192.109 549.166 191.316 549.696 190.648 550.365C189.987 551.024 189.469 551.796 189.105 552.651C188.73 553.538 188.538 554.491 188.54 555.454V557.114H189.68V555.454C189.68 554.635 189.839 553.843 190.156 553.097C190.461 552.377 190.897 551.728 191.453 551.172C192.015 550.609 192.682 550.163 193.417 549.859C194.152 549.555 194.939 549.398 195.735 549.399Z" fill="#337ECC"/>
</g>
</g>
<defs>
<filter id="filter0_bdi_135_95567" x="-46" y="-60" width="788" height="920" filterUnits="userSpaceOnUse" color-interpolation-filters="sRGB">
<feFlood flood-opacity="0" result="BackgroundImageFix"/>
<feGaussianBlur in="BackgroundImageFix" stdDeviation="50"/>
<feComposite in2="SourceAlpha" operator="in" result="effect1_backgroundBlur_135_95567"/>
<feColorMatrix in="SourceAlpha" type="matrix" values="0 0 0 0 0 0 0 0 0 0 0 0 0 0 0 0 0 0 127 0" result="hardAlpha"/>
<feOffset dx="6" dy="20"/>
<feGaussianBlur stdDeviation="30"/>
<feComposite in2="hardAlpha" operator="out"/>
<feColorMatrix type="matrix" values="0 0 0 0 0.814583 0 0 0 0 0.881667 0 0 0 0 0.958333 0 0 0 0.15 0"/>
<feBlend mode="normal" in2="effect1_backgroundBlur_135_95567" result="effect2_dropShadow_135_95567"/>
<feBlend mode="normal" in="SourceGraphic" in2="effect2_dropShadow_135_95567" result="shape"/>
<feColorMatrix in="SourceAlpha" type="matrix" values="0 0 0 0 0 0 0 0 0 0 0 0 0 0 0 0 0 0 127 0" result="hardAlpha"/>
<feOffset dx="13" dy="4"/>
<feGaussianBlur stdDeviation="9.5"/>
<feComposite in2="hardAlpha" operator="arithmetic" k2="-1" k3="1"/>
<feColorMatrix type="matrix" values="0 0 0 0 1 0 0 0 0 1 0 0 0 0 1 0 0 0 0.54 0"/>
<feBlend mode="normal" in2="shape" result="effect3_innerShadow_135_95567"/>
</filter>
<filter id="filter1_d_135_95567" x="411" y="157" width="214" height="214" filterUnits="userSpaceOnUse" color-interpolation-filters="sRGB">
<feFlood flood-opacity="0" result="BackgroundImageFix"/>
<feColorMatrix in="SourceAlpha" type="matrix" values="0 0 0 0 0 0 0 0 0 0 0 0 0 0 0 0 0 0 127 0" result="hardAlpha"/>
<feMorphology radius="12" operator="erode" in="SourceAlpha" result="effect1_dropShadow_135_95567"/>
<feOffset dy="32"/>
<feGaussianBlur stdDeviation="32"/>
<feColorMatrix type="matrix" values="0 0 0 0 0.333333 0 0 0 0 0.411765 0 0 0 0 0.529412 0 0 0 0.16 0"/>
<feBlend mode="normal" in2="BackgroundImageFix" result="effect1_dropShadow_135_95567"/>
<feBlend mode="normal" in="SourceGraphic" in2="effect1_dropShadow_135_95567" result="shape"/>
</filter>
<filter id="filter2_d_135_95567" x="40" y="472" width="259.654" height="259.656" filterUnits="userSpaceOnUse" color-interpolation-filters="sRGB">
<feFlood flood-opacity="0" result="BackgroundImageFix"/>
<feColorMatrix in="SourceAlpha" type="matrix" values="0 0 0 0 0 0 0 0 0 0 0 0 0 0 0 0 0 0 127 0" result="hardAlpha"/>
<feMorphology radius="12" operator="erode" in="SourceAlpha" result="effect1_dropShadow_135_95567"/>
<feOffset dy="32"/>
<feGaussianBlur stdDeviation="32"/>
<feColorMatrix type="matrix" values="0 0 0 0 0.333333 0 0 0 0 0.411765 0 0 0 0 0.529412 0 0 0 0.16 0"/>
<feBlend mode="normal" in2="BackgroundImageFix" result="effect1_dropShadow_135_95567"/>
<feBlend mode="normal" in="SourceGraphic" in2="effect1_dropShadow_135_95567" result="shape"/>
</filter>
<linearGradient id="paint0_linear_135_95567" x1="348" y1="246.93" x2="348" y2="553.301" gradientUnits="userSpaceOnUse">
<stop stop-color="#79BBFF"/>
<stop offset="1" stop-color="#C6E2FF"/>
</linearGradient>
<linearGradient id="paint1_linear_135_95567" x1="348" y1="152.039" x2="348" y2="647.971" gradientUnits="userSpaceOnUse">
<stop stop-color="#79BBFF"/>
<stop offset="1" stop-color="#C6E2FF"/>
</linearGradient>
<clipPath id="clip0_135_95567">
<path d="M54 44C54 41.7909 55.7909 40 58 40H638C640.209 40 642 41.7909 642 44V756C642 758.209 640.209 760 638 760H58C55.7909 760 54 758.209 54 756V44Z" fill="white"/>
</clipPath>
</defs>
</svg>
