<svg xmlns="http://www.w3.org/2000/svg" width="100" height="100" viewBox="0 0 100 100" fill="none"><g id="Frame 175428"><g id="Group"><path id="Vector" d="M60.3551 32.0391L5 48.6688V85.9154L5.00371 85.9143C5.00664 86.6805 5.57012 87.4828 6.6459 88.1039L10.6305 90.4043L14.615 92.7047C16.3896 93.7293 19.0191 93.9551 20.8119 93.2367L25.2279 91.4672C37.4861 86.5555 48.0584 80.4516 56.566 73.3742L59.6309 70.8246C60.1185 70.4189 60.3514 69.9391 60.3518 69.4438L60.3553 69.4428L60.3551 32.0391Z" fill="var(--color-gradient-start)"></path><path id="Vector_2" d="M40.1274 26.5785L44.5436 24.8089C46.3364 24.0906 48.9659 24.3163 50.7403 25.341L54.7249 27.6413L58.7094 29.9417C60.484 30.9663 60.8751 32.4845 59.6309 33.5195L56.5661 36.0691C48.0587 43.1464 37.4864 49.2503 25.228 54.1621L20.8118 55.9316C19.0192 56.6499 16.3895 56.4242 14.6151 55.3996L10.6305 53.0992L6.64595 50.7988C4.87134 49.7742 4.48033 48.256 5.72447 47.221L8.78931 44.6714C17.2969 37.5941 27.8692 31.4902 40.1274 26.5785Z" fill="var(--color-gradient-end)"></path><path id="Vector_3" d="M5.72447 47.2203C4.48033 48.2553 4.87134 49.7734 6.64595 50.798L8.50904 51.8736H17.3745V46.3105H6.81802L5.72447 47.2203Z" fill="var(--color-gradient-start)"></path><path id="Vector_4" d="M24.9619 33.735H48.5887V28.1719H36.3182C32.3359 29.8988 28.5434 31.7543 24.9619 33.735Z" fill="var(--color-gradient-start)"></path><path id="Vector_5" d="M52.6148 14.7407C52.6148 9.41999 49.8641 4.65535 45.2561 1.99519C40.6484 -0.665161 35.1469 -0.664966 30.5391 1.99519C19.5604 8.33367 12.7402 20.1464 12.7402 32.8235V49.1032L12.7482 49.1038C12.7533 49.7761 13.243 50.4837 14.2016 51.0372C15.9633 52.0544 18.6283 52.1647 20.1541 51.2839C20.8525 50.8805 21.1869 50.3391 21.1799 49.7733L21.1881 49.7739V32.8233C21.1881 23.1548 26.3898 14.1452 34.7629 9.31082C36.7262 8.17761 39.0693 8.17742 41.0326 9.31082C42.9953 10.444 44.1672 12.4739 44.1672 14.7405V30.9886L44.1766 30.9893C44.1957 31.6526 44.6842 32.3475 45.6287 32.8927C47.3904 33.9098 50.0555 34.0202 51.5812 33.1393C52.2428 32.7575 52.5803 32.2518 52.6082 31.7188L52.615 31.7194V14.7407H52.6148Z" fill="var(--color-bg-half)"></path><path id="Vector_6" d="M47.5215 31.0103V16.2362C47.5215 9.89346 40.6551 5.9292 35.1621 9.10049C36.9854 8.21045 39.0787 8.25127 40.8766 9.22452C42.9428 10.3431 44.1674 12.5683 44.1674 14.9179V30.9896L44.1768 30.9903C44.1959 31.6536 44.6844 32.3485 45.6289 32.8937C47.3906 33.9108 50.0557 34.0212 51.5814 33.1403C52.0162 32.8894 52.3084 32.5843 52.4672 32.2536C49.2016 32.6767 47.5215 31.0103 47.5215 31.0103Z" fill="var(--color-primary-light)"></path><path id="Vector_7" d="M47.4455 59.387C47.4455 55.8879 45.3182 54.2797 42.6939 55.7948C40.0697 57.3098 37.9424 61.3747 37.9424 64.8737C37.9424 67.2889 38.9562 68.8026 40.4471 69.0108V74.3038C40.4471 75.9583 41.4531 76.7188 42.6939 76.0024C43.935 75.286 44.9408 73.3639 44.9408 71.7094V66.4165C46.4316 64.4866 47.4455 61.8022 47.4455 59.387Z" fill="var(--color-secondary)"></path><path id="Vector_8" d="M51.915 71.0645V79.5205L51.9209 79.5209C51.9246 80.0223 52.2898 80.55 53.0047 80.9627C54.3186 81.7211 56.3059 81.8035 57.4436 81.1467C57.9645 80.8459 58.2139 80.4422 58.2086 80.0201L58.2146 80.0207V71.0645H51.915Z" fill="var(--color-gradient-end)"></path><path id="Vector_9" d="M94.7282 87.5295C94.7282 80.0629 90.1885 71.3891 84.5885 68.1559C82.0514 66.691 79.734 66.5983 77.9557 67.625L77.9549 67.6205L71.7772 71.2061C71.7772 71.2061 68.4532 87.2158 74.1207 92.0635C79.7881 96.9112 84.9164 99.3875 84.9164 99.3875L91.3491 95.6547L91.3309 95.6625C93.4147 94.3895 94.7282 91.544 94.7282 87.5295ZM81.2801 82.5682C81.3907 81.7115 81.4412 80.7326 81.4412 79.7729C81.4412 79.0944 81.4078 78.3629 81.3455 77.6369L86.4682 90.3764C86.092 90.3227 84.8141 89.8213 84.5762 89.6832C82.5225 88.4918 80.9555 85.0844 81.2801 82.5682Z" fill="var(--color-gradient-end)"></path><path id="Vector_10" d="M94.7287 87.5293C94.7287 87.3926 94.724 87.2547 94.7211 87.1172L86.8643 91.6533L84.917 99.3873L91.3496 95.6545L91.3314 95.6623C93.4152 94.3893 94.7287 91.5438 94.7287 87.5293Z" fill="var(--color-gradient-end)"></path><path id="Vector_11" d="M85.8957 90.2561C85.6924 90.1994 85.4931 90.1294 85.299 90.0466C85.0508 89.9403 84.8094 89.8189 84.5761 89.6831C82.5226 88.4919 80.9556 85.0844 81.2802 82.5682C81.3908 81.7116 81.4414 80.7327 81.4414 79.7729C81.4414 79.0944 81.408 78.363 81.3457 77.637C81.3457 77.637 74.1923 71.1589 73.123 77.637C72.306 82.5868 72.9767 89.6229 75.513 93.2163C76.4555 93.973 77.4205 94.7014 78.4066 95.4003C83.2822 96.6255 85.3136 92.7368 85.3136 92.7368C85.3136 92.7368 85.6623 91.7862 85.8957 90.2561Z" fill="var(--color-accent-start)"></path><path id="Vector_12" d="M85.8957 90.2561C85.6924 90.1994 85.4931 90.1294 85.299 90.0466C85.0508 89.9403 84.8094 89.8189 84.5761 89.6831C82.5226 88.4919 80.9556 85.0844 81.2802 82.5682C81.3908 81.7116 81.4414 80.7327 81.4414 79.7729C81.4414 79.0944 81.408 78.363 81.3457 77.637C81.3457 77.637 74.1923 71.1589 73.123 77.637C72.306 82.5868 72.9767 89.6229 75.513 93.2163C76.4555 93.973 77.4205 94.7014 78.4066 95.4003C83.2822 96.6255 85.3136 92.7368 85.3136 92.7368C85.3136 92.7368 85.6623 91.7862 85.8957 90.2561Z" fill="var(--color-secondary)"></path><path id="Vector_13" d="M44.457 66.7637V75.2197L44.4629 75.2203C44.4666 75.7217 44.8318 76.2494 45.5467 76.6621C46.8605 77.4207 48.8479 77.5029 49.9857 76.8461C50.5066 76.5453 50.7561 76.1416 50.7506 75.7195L50.7566 75.7201V66.7639H44.457V66.7637Z" fill="var(--color-gradient-end)"></path><path id="Vector_14" d="M47.0238 58.1026L47.0223 58.106C46.4801 57.7929 45.7746 57.8187 45.001 58.2653C43.2934 59.2511 41.9092 61.896 41.9092 64.1729C41.9092 65.4292 42.3318 66.3079 42.9965 66.6804L42.9953 66.6831L71.9475 83.3659L75.9756 74.7866L47.0238 58.1026Z" fill="var(--color-gradient-end)"></path><path id="Vector_15" d="M78.4053 71.7441C72.8053 68.5109 68.2656 71.943 68.2656 79.4096C68.2656 86.8762 72.8053 95.55 78.4053 98.7832C84.0053 102.016 88.5449 98.5844 88.5449 91.1178C88.5449 83.6512 84.0053 74.9773 78.4053 71.7441ZM84.4426 89.6688C84.1361 93.2041 81.8986 94.9057 79.1154 93.7201C78.8673 93.6139 78.626 93.4926 78.3928 93.3568C76.3391 92.1656 74.7721 88.7582 75.0969 86.242C75.2074 85.3852 75.258 84.4065 75.258 83.4467C75.258 82.5193 75.1967 81.493 75.0826 80.517C74.7418 77.6025 76.2904 75.9641 78.3568 77.1356L78.4053 77.1633C81.9877 79.2316 84.8461 85.0162 84.4426 89.6688Z" fill="var(--color-accent-start)"></path></g></g><defs><linearGradient id="paint0_linear_234_23034" x1="76.2822" y1="81.744" x2="83.738" y2="94.6577" gradientUnits="userSpaceOnUse"><stop stop-color="var(--color-accent-start)"></stop><stop offset="1" stop-color="var(--color-accent-end)"></stop></linearGradient></defs></svg>