<svg xmlns="http://www.w3.org/2000/svg" width="24" height="24" viewBox="0 0 24 24" fill="none"><g id="social networks X" clip-path="url(#clip0_428_32696)"><path id="Oval" d="M12 24C18.6274 24 24 18.6274 24 12C24 5.37258 18.6274 0 12 0C5.37258 0 0 5.37258 0 12C0 18.6274 5.37258 24 12 24Z" fill="black"></path><path id="Vector" d="M13.0465 11.0812L17.1415 6H16.1711L12.6154 10.4119L9.77551 6H6.5L10.7945 12.6716L6.5 18H7.47044L11.2253 13.3409L14.2245 18H17.5L13.0463 11.0812H13.0465ZM11.7173 12.7304L11.2822 12.066L7.8201 6.77981H9.31064L12.1046 11.046L12.5397 11.7103L16.1716 17.2557H14.681L11.7173 12.7306V12.7304Z" fill="white"></path></g><defs><clipPath id="clip0_428_32696"><rect width="24" height="24" fill="white"></rect></clipPath></defs></svg>