<svg width="24" height="24" viewBox="0 0 24 24" fill="none" xmlns="http://www.w3.org/2000/svg">
<g id="social networks Linkedin" clip-path="url(#clip0_234_33045)">
<rect id="bg" width="24" height="24" rx="12" fill="white"/>
<g id="linked_in">
<path d="M8.63608 7.45041C8.63608 8.25145 7.93405 8.90083 7.06804 8.90083C6.20204 8.90083 5.5 8.25145 5.5 7.45041C5.5 6.64937 6.20204 6 7.06804 6C7.93405 6 8.63608 6.64937 8.63608 7.45041Z" fill="currentColor"/>
<path d="M5.71443 9.96694H8.39485V18H5.71443V9.96694Z" fill="currentColor"/>
<path d="M12.7103 9.96694H10.0299V18H12.7103C12.7103 18 12.7103 15.4711 12.7103 13.8899C12.7103 12.9408 13.038 11.9876 14.3454 11.9876C15.8229 11.9876 15.814 13.2296 15.8071 14.1918C15.7981 15.4495 15.8196 16.733 15.8196 18H18.5V13.7603C18.4773 11.0532 17.764 9.80579 15.4175 9.80579C14.024 9.80579 13.1602 10.4315 12.7103 10.9976V9.96694Z" fill="currentColor"/>
</g>
</g>
<defs>
<clipPath id="clip0_234_33045">
<rect width="24" height="24" fill="white"/>
</clipPath>
</defs>
</svg>
