<svg width="32" height="32" viewBox="0 0 32 32" fill="none" xmlns="http://www.w3.org/2000/svg">
<g id="target-arrow">
<path id="Vector" d="M15.9997 9.33285C14.6811 9.33285 13.3922 9.72384 12.2959 10.4564C11.1995 11.1889 10.3451 12.2301 9.84048 13.4483C9.3359 14.6665 9.20387 16.0069 9.46111 17.3001C9.71834 18.5933 10.3533 19.7812 11.2856 20.7136C12.218 21.6459 13.4059 22.2808 14.6991 22.5381C15.9923 22.7953 17.3327 22.6633 18.5509 22.1587C19.7691 21.6541 20.8103 20.7996 21.5428 19.7033C22.2754 18.607 22.6663 17.3181 22.6663 15.9995M17.333 4.07287C14.8611 3.79555 12.3641 4.29324 10.1874 5.4971C8.0107 6.70095 6.2619 8.55147 5.18291 10.7927C4.10391 13.0339 3.74805 15.555 4.16454 18.0073C4.58103 20.4596 5.74928 22.7219 7.50771 24.4812C9.26614 26.2405 11.5278 27.4099 13.9799 27.8276C16.432 28.2454 18.9533 27.8908 21.1951 26.8129C23.4368 25.735 25.2882 23.9872 26.4932 21.8111C27.6981 19.635 28.1971 17.1383 27.921 14.6662M19.9997 11.9995V7.99951L23.9997 3.99951V7.99951H27.9997L23.9997 11.9995H19.9997ZM19.9997 11.9995L15.9997 15.9995M14.6663 15.9995C14.6663 16.3531 14.8068 16.6923 15.0569 16.9423C15.3069 17.1924 15.6461 17.3328 15.9997 17.3328C16.3533 17.3328 16.6924 17.1924 16.9425 16.9423C17.1925 16.6923 17.333 16.3531 17.333 15.9995C17.333 15.6459 17.1925 15.3068 16.9425 15.0567C16.6924 14.8067 16.3533 14.6662 15.9997 14.6662C15.6461 14.6662 15.3069 14.8067 15.0569 15.0567C14.8068 15.3068 14.6663 15.6459 14.6663 15.9995Z" stroke="currentColor" stroke-width="1.25" stroke-linecap="round" stroke-linejoin="round"/>
</g>
</svg>
