<svg xmlns="http://www.w3.org/2000/svg" width="45" height="44" viewBox="0 0 45 44" fill="none"><path id="Vector" d="M29.5 10.3333C30.7377 10.3333 31.9247 10.825 32.7998 11.7002C33.675 12.5753 34.1667 13.7623 34.1667 15M29.5 1C33.213 1 36.774 2.475 39.3995 5.10051C42.025 7.72601 43.5 11.287 43.5 15M6.16667 3.33333H15.5L20.1667 15L14.3333 18.5C16.8322 23.5669 20.9331 27.6678 26 30.1667L29.5 24.3333L41.1667 29V38.3333C41.1667 39.571 40.675 40.758 39.7998 41.6332C38.9247 42.5083 37.7377 43 36.5 43C27.3983 42.4469 18.8137 38.5818 12.3659 32.1341C5.91818 25.6863 2.05312 17.1017 1.5 8C1.5 6.76232 1.99167 5.57534 2.86683 4.70017C3.742 3.825 4.92899 3.33333 6.16667 3.33333Z" stroke="currentColor" stroke-width="1.25" stroke-linecap="round" stroke-linejoin="round"></path></svg>