<svg xmlns="http://www.w3.org/2000/svg" width="45" height="30" viewBox="0 0 45 30" fill="none"><path id="Vector" d="M22.5008 10.7393C26.6215 4.24333 30.2358 1 33.3461 1C38.0128 1 40.9598 6.16367 42.6795 13.173C44.3221 19.8673 43.8461 29 38.0128 29C35.4135 29 31.8341 25.3483 28.3341 20.4787C26.1071 17.4101 24.1551 14.151 22.5008 10.7393ZM22.5008 10.7393C18.3801 4.24333 14.7661 1 11.6557 1C6.98908 1 4.04208 6.16367 2.32241 13.173C0.679748 19.8673 1.15575 29 6.98908 29C9.58841 29 13.1677 25.3483 16.6677 20.4787C19.0011 17.233 20.9445 13.985 22.5008 10.7393Z" stroke="currentColor" stroke-width="1.25" stroke-linecap="round" stroke-linejoin="round"></path></svg>